<?xml version="1.0" standalone="no"?>
<!DOCTYPE svg PUBLIC "-//W3C//DTD SVG 20010904//EN"
 "http://www.w3.org/TR/2001/REC-SVG-20010904/DTD/svg10.dtd">
<svg version="1.0" xmlns="http://www.w3.org/2000/svg"
 width="500.000000pt" height="500.000000pt" viewBox="0 0 500.000000 500.000000"
 preserveAspectRatio="xMidYMid meet">

<g transform="translate(0.000000,500.000000) scale(0.100000,-0.100000)"
fill="#000000" stroke="none">
<path d="M2282 4909 c2 -6 8 -10 13 -10 5 0 11 4 13 10 2 6 -4 11 -13 11 -9 0
-15 -5 -13 -11z"/>
<path d="M2660 4910 c0 -5 7 -10 15 -10 8 0 15 5 15 10 0 6 -7 10 -15 10 -8 0
-15 -4 -15 -10z"/>
<path d="M2157 4903 c-12 -11 -8 -23 8 -23 8 0 15 7 15 15 0 16 -12 20 -23 8z"/>
<path d="M2212 4899 c2 -6 8 -10 13 -10 5 0 11 4 13 10 2 6 -4 11 -13 11 -9 0
-15 -5 -13 -11z"/>
<path d="M2730 4900 c0 -5 4 -10 9 -10 6 0 13 5 16 10 3 6 -1 10 -9 10 -9 0
-16 -4 -16 -10z"/>
<path d="M2790 4895 c0 -9 5 -15 11 -13 6 2 11 8 11 13 0 5 -5 11 -11 13 -6 2
-11 -4 -11 -13z"/>
<path d="M2085 4891 c-7 -12 12 -24 25 -16 11 7 4 25 -10 25 -5 0 -11 -4 -15
-9z"/>
<path d="M2388 4887 c-182 -52 -297 -264 -241 -442 27 -83 64 -137 125 -183
87 -65 198 -86 306 -58 136 35 237 141 258 273 6 37 4 41 -19 45 -23 4 -26 1
-32 -37 -8 -58 -61 -142 -113 -182 -24 -18 -67 -40 -97 -48 -36 -11 -55 -22
-58 -35 -7 -27 -47 -22 -58 7 -5 13 -17 23 -27 23 -42 0 -114 34 -152 73 -46
46 -72 91 -89 155 -9 31 -17 42 -31 42 -30 0 -28 48 2 52 17 2 24 13 30 43 21
99 129 203 233 225 21 4 31 12 33 28 3 17 10 22 34 22 25 0 29 -3 25 -20 -4
-16 4 -22 48 -35 99 -28 192 -123 217 -221 11 -43 16 -49 37 -46 21 3 23 7 17
42 -16 102 -93 205 -190 254 -66 34 -183 44 -258 23z"/>
<path d="M2850 4884 c0 -9 5 -14 12 -12 18 6 21 28 4 28 -9 0 -16 -7 -16 -16z"/>
<path d="M2032 4878 c6 -18 28 -21 28 -4 0 9 -7 16 -16 16 -9 0 -14 -5 -12
-12z"/>
<path d="M2912 4879 c2 -6 8 -10 13 -10 5 0 11 4 13 10 2 6 -4 11 -13 11 -9 0
-15 -5 -13 -11z"/>
<path d="M1980 4865 c0 -9 5 -15 11 -13 6 2 11 8 11 13 0 5 -5 11 -11 13 -6 2
-11 -4 -11 -13z"/>
<path d="M2972 4868 c6 -18 28 -21 28 -4 0 9 -7 16 -16 16 -9 0 -14 -5 -12
-12z"/>
<path d="M1920 4855 c0 -8 7 -15 15 -15 8 0 15 7 15 15 0 8 -7 15 -15 15 -8 0
-15 -7 -15 -15z"/>
<path d="M3037 4863 c-12 -11 -8 -23 8 -23 8 0 15 7 15 15 0 16 -12 20 -23 8z"/>
<path d="M1855 4850 c-11 -17 5 -32 21 -19 7 6 11 15 8 20 -7 12 -21 11 -29
-1z"/>
<path d="M3104 4846 c-8 -22 3 -33 18 -18 9 9 9 15 0 24 -9 9 -13 7 -18 -6z"/>
<path d="M1237 4844 c-14 -15 -6 -34 14 -34 14 0 19 5 17 17 -3 18 -20 27 -31
17z"/>
<path d="M1787 4833 c-12 -11 -8 -23 8 -23 8 0 15 7 15 15 0 16 -12 20 -23 8z"/>
<path d="M2436 4829 c-62 -10 -145 -64 -185 -123 -46 -67 -62 -140 -47 -213
31 -155 132 -235 290 -231 l71 1 -85 7 c-47 3 -96 12 -110 19 -83 46 -134 113
-155 205 -34 146 90 309 245 323 94 9 144 -10 215 -81 58 -59 69 -79 91 -171
5 -22 8 -25 11 -12 9 36 -29 124 -74 176 -72 82 -160 115 -267 100z"/>
<path d="M3164 4829 c-3 -6 -1 -16 5 -22 9 -9 14 -8 21 3 9 15 4 30 -10 30 -5
0 -12 -5 -16 -11z"/>
<path d="M3732 4823 c2 -10 10 -18 18 -18 8 0 16 8 18 18 2 12 -3 17 -18 17
-15 0 -20 -5 -18 -17z"/>
<path d="M1147 4813 c-15 -14 -7 -43 12 -43 22 0 45 25 36 40 -7 11 -38 14
-48 3z"/>
<path d="M1720 4805 c0 -8 7 -15 15 -15 8 0 15 7 15 15 0 8 -7 15 -15 15 -8 0
-15 -7 -15 -15z"/>
<path d="M3230 4805 c0 -8 5 -15 10 -15 6 0 10 7 10 15 0 8 -4 15 -10 15 -5 0
-10 -7 -10 -15z"/>
<path d="M3814 4805 c-9 -23 3 -45 25 -45 27 0 36 31 15 47 -23 17 -33 16 -40
-2z"/>
<path d="M1655 4791 c-3 -5 -1 -12 5 -16 12 -7 30 2 30 16 0 12 -27 12 -35 0z"/>
<path d="M3285 4791 c-7 -12 12 -24 25 -16 11 7 4 25 -10 25 -5 0 -11 -4 -15
-9z"/>
<path d="M2924 4771 c-17 -13 -19 -20 -10 -36 6 -11 12 -21 12 -23 1 -2 13 0
27 3 33 9 39 36 13 57 -20 14 -23 14 -42 -1z"/>
<path d="M1016 4765 c-8 -9 -13 -22 -10 -30 8 -20 50 -19 58 1 8 22 8 22 -13
34 -15 7 -23 6 -35 -5z"/>
<path d="M1590 4765 c0 -8 7 -15 15 -15 8 0 15 7 15 15 0 8 -7 15 -15 15 -8 0
-15 -7 -15 -15z"/>
<path d="M2384 4755 c-55 -28 -104 -81 -122 -134 -18 -52 -15 -61 18 -61 20 0
30 -5 30 -15 0 -10 -10 -15 -30 -15 -25 0 -30 -4 -30 -22 1 -35 34 -100 70
-136 37 -37 71 -57 118 -67 32 -7 32 -7 32 34 0 34 3 41 20 41 17 0 20 -7 20
-41 0 -38 2 -41 23 -35 12 3 27 6 34 6 6 0 34 18 61 39 48 38 82 93 96 154 6
25 4 27 -24 27 -40 0 -41 28 -1 32 l30 3 -18 53 c-21 62 -67 114 -126 142 -73
35 -75 33 -75 -75 0 -108 0 -108 74 -40 37 34 56 43 56 27 0 -4 -22 -32 -50
-62 -27 -30 -50 -61 -50 -71 0 -9 -9 -24 -20 -34 -16 -15 -26 -17 -48 -9 -32
11 -42 53 -18 74 13 10 16 34 16 111 0 115 -2 116 -86 74z"/>
<path d="M3352 4766 c1 -10 8 -17 13 -17 15 1 12 24 -3 29 -9 3 -13 -2 -10
-12z"/>
<path d="M3931 4761 c-7 -5 -11 -17 -9 -27 4 -25 51 -26 56 -2 4 20 -29 40
-47 29z"/>
<path d="M1535 4750 c-7 -12 2 -30 16 -30 12 0 12 27 0 35 -5 3 -12 1 -16 -5z"/>
<path d="M3415 4750 c-4 -6 -3 -16 3 -22 6 -6 12 -6 17 2 4 6 3 16 -3 22 -6 6
-12 6 -17 -2z"/>
<path d="M875 4703 c-333 -199 -373 -226 -381 -259 -8 -32 8 -68 40 -89 22
-15 27 -15 55 -1 35 19 51 44 51 81 0 17 6 29 18 32 10 2 22 14 27 25 6 12 62
53 126 92 164 101 176 111 163 133 -17 27 -33 25 -99 -14z m48 -15 c2 -8 -30
-33 -77 -61 -45 -27 -101 -62 -125 -78 -43 -28 -61 -30 -61 -6 1 12 104 81
194 129 59 31 63 32 69 16z m-268 -206 c-6 -7 -34 29 -34 43 0 6 9 -1 20 -14
11 -13 17 -26 14 -29z m-37 8 c7 -11 8 -20 2 -20 -5 0 -14 9 -20 20 -6 11 -7
20 -3 20 5 0 14 -9 21 -20z m1 -84 c-6 -12 -19 -27 -30 -34 -18 -11 -19 -9
-19 38 0 27 -4 50 -10 50 -5 0 -10 -24 -10 -52 l-1 -53 -19 24 c-23 27 -26 60
-7 83 21 28 41 26 74 -4 26 -26 30 -34 22 -52z"/>
<path d="M1773 4719 c-27 -13 -43 -28 -43 -40 0 -17 1 -17 43 1 26 12 65 20
102 20 57 0 59 1 37 16 -38 26 -92 28 -139 3z"/>
<path d="M3115 4733 c-77 -16 -117 -63 -118 -142 -1 -59 25 -107 73 -132 45
-24 81 -24 130 1 48 25 70 64 70 127 0 92 -75 163 -155 146z m75 -188 c23 -7
25 -18 9 -46 -24 -46 -105 -42 -127 5 -9 19 -6 30 15 59 l26 36 28 -24 c16
-13 38 -26 49 -30z"/>
<path d="M1470 4715 c0 -8 7 -15 15 -15 8 0 15 7 15 15 0 8 -7 15 -15 15 -8 0
-15 -7 -15 -15z"/>
<path d="M3470 4715 c0 -8 7 -15 15 -15 8 0 15 7 15 15 0 8 -7 15 -15 15 -8 0
-15 -7 -15 -15z"/>
<path d="M4016 4703 c-10 -25 23 -48 41 -30 8 7 11 21 7 30 -8 22 -40 22 -48
0z"/>
<path d="M1406 4703 c-11 -11 -6 -23 9 -23 8 0 15 4 15 9 0 13 -16 22 -24 14z"/>
<path d="M3536 4703 c-11 -11 -6 -23 9 -23 8 0 15 4 15 9 0 13 -16 22 -24 14z"/>
<path d="M1676 4659 c-20 -24 -26 -41 -26 -80 0 -28 -5 -59 -10 -70 -11 -19
-11 -19 -50 1 -36 18 -39 22 -30 46 14 35 15 34 -30 34 l-41 0 16 -31 c19 -35
20 -33 -22 -47 -25 -8 -34 -8 -44 4 -6 8 -22 14 -35 14 -22 0 -23 -2 -12 -20
11 -17 10 -22 -2 -30 -20 -12 -33 -2 -26 23 3 13 2 17 -5 10 -17 -17 -13 -44
25 -163 55 -174 47 -164 142 -168 94 -3 99 0 114 79 11 58 67 206 81 215 5 3
9 12 9 21 0 14 -2 14 -19 -1 -17 -16 -20 -16 -35 -1 -20 20 -20 34 -1 41 9 4
15 19 15 38 1 17 7 42 15 56 16 29 19 60 6 60 -5 0 -21 -14 -35 -31z m-70
-213 c19 -19 34 -42 34 -52 0 -14 -5 -10 -20 13 -24 39 -48 53 -95 53 -41 0
-95 -44 -94 -77 0 -13 3 -12 10 7 25 64 106 81 153 31 25 -26 27 -35 22 -68
-4 -21 -9 -57 -12 -80 l-6 -43 -69 0 c-67 0 -69 1 -69 25 0 13 -9 49 -21 80
-24 63 -20 84 22 120 46 38 101 35 145 -9z"/>
<path d="M1514 4375 c-4 -9 -2 -21 4 -27 15 -15 44 -1 40 19 -4 23 -36 29 -44
8z"/>
<path d="M1802 4677 c-23 -10 -42 -48 -42 -80 0 -28 27 -67 46 -67 11 0 9 7
-8 31 -21 28 -21 32 -7 57 17 31 59 41 79 17 18 -21 16 -66 -4 -80 -20 -15
-21 -25 -3 -25 38 0 64 89 35 118 -9 9 -9 12 3 12 25 0 59 -44 59 -77 0 -17
-10 -43 -22 -58 -19 -24 -26 -27 -65 -22 -25 2 -59 0 -76 -6 -18 -5 -37 -11
-44 -13 -9 -2 -9 -12 0 -39 8 -27 8 -54 -1 -108 -14 -79 -26 -100 -53 -92 -16
5 -16 1 4 -50 12 -30 27 -55 34 -55 6 0 15 21 18 48 4 26 10 61 14 77 7 27 10
22 25 -47 17 -74 19 -78 45 -78 26 0 28 4 41 70 7 39 17 70 21 70 4 0 11 -31
15 -70 5 -59 10 -70 25 -70 13 0 20 10 25 38 4 20 11 45 16 54 6 13 5 16 -4
13 -35 -13 -58 46 -61 159 -2 45 2 61 15 70 27 19 48 67 48 109 0 46 -24 96
-48 99 -54 4 -113 2 -130 -5z m75 -205 c14 -9 16 -122 2 -122 -5 0 -9 -13 -9
-29 0 -44 -10 -61 -35 -61 -24 0 -35 17 -35 55 0 12 -7 28 -15 35 -16 13 -20
40 -7 40 5 0 7 14 4 30 -2 17 1 37 8 45 13 16 67 20 87 7z"/>
<path d="M1342 4668 c6 -18 28 -21 28 -4 0 9 -7 16 -16 16 -9 0 -14 -5 -12
-12z"/>
<path d="M3733 4650 c-14 -38 -46 -40 -77 -3 -33 38 -58 27 -44 -21 14 -45 -3
-70 -44 -64 -41 6 -60 -28 -29 -53 31 -25 29 -77 -4 -89 -28 -11 -29 -14 -15
-41 8 -14 17 -18 34 -13 29 7 61 -36 61 -81 0 -31 0 -31 -35 -19 -19 7 -36 19
-38 28 -5 21 -27 20 -49 -2 -21 -21 -49 -34 -78 -36 -14 -1 -19 -7 -18 -21 4
-31 -8 -76 -18 -69 -5 3 -9 24 -9 47 -1 23 -11 71 -23 107 -20 59 -26 67 -67
88 l-45 22 -21 -47 c-11 -27 -28 -54 -37 -62 -23 -19 -22 0 4 50 28 56 19 68
-16 20 -17 -21 -34 -37 -38 -34 -4 3 -3 11 4 19 15 19 4 30 -14 15 -12 -9 -18
-6 -32 15 -28 42 -28 20 -1 -35 14 -28 26 -53 26 -57 0 -15 -43 33 -61 69 -22
43 -30 44 -74 17 -42 -26 -65 -83 -72 -177 l-6 -73 222 0 c141 0 221 -4 221
-10 0 -5 9 -10 20 -10 23 0 42 -32 38 -63 -4 -31 10 -51 26 -37 10 7 22 4 47
-13 49 -33 69 -39 69 -21 0 15 59 46 72 38 4 -3 5 -18 1 -34 -6 -34 17 -51 42
-30 18 15 19 25 2 42 -34 34 -23 124 14 115 14 -4 19 0 19 14 0 12 -7 19 -19
19 -21 0 -46 54 -34 73 35 56 74 63 98 16 11 -20 21 -29 31 -25 9 3 20 6 25 6
5 0 9 11 9 24 0 14 10 30 26 41 24 15 27 15 43 1 17 -15 20 -15 42 3 l24 20
-22 22 c-18 18 -19 26 -11 50 7 21 17 29 34 29 15 0 24 6 24 15 0 8 1 18 3 22
1 4 -11 10 -27 13 -41 7 -55 55 -24 87 17 19 19 25 8 38 -15 18 -34 19 -59 3
-29 -18 -71 13 -71 52 0 25 -4 30 -23 30 -16 0 -26 -9 -34 -30z m83 -124 c26
-26 34 -42 34 -70 0 -52 -23 -90 -66 -111 -69 -33 -146 5 -159 79 -15 75 36
136 112 136 38 0 50 -5 79 -34z m-496 -266 c0 -5 -18 -10 -40 -10 -22 0 -40 5
-40 10 0 6 18 10 40 10 22 0 40 -4 40 -10z m254 -42 c-3 -4 3 -19 12 -33 11
-17 14 -35 10 -59 -8 -41 -23 -55 -69 -63 -75 -12 -118 87 -62 143 20 20 33
24 69 22 24 -2 42 -6 40 -10z m-147 -85 c-3 -10 -5 -4 -5 12 0 17 2 24 5 18 2
-7 2 -21 0 -30z m190 15 c-3 -8 -6 -5 -6 6 -1 11 2 17 5 13 3 -3 4 -12 1 -19z"/>
<path d="M1503 4645 c-27 -24 -27 -24 -5 -25 13 0 22 6 22 15 0 8 5 15 10 15
6 0 10 -7 10 -15 0 -9 9 -15 22 -15 l21 0 -23 25 c-13 14 -25 25 -26 25 -2 0
-16 -11 -31 -25z"/>
<path d="M1990 4662 c0 -4 9 -26 21 -47 15 -30 19 -51 15 -83 -4 -33 -2 -44
10 -49 21 -8 26 0 31 50 7 62 -33 137 -73 137 -2 0 -4 -4 -4 -8z"/>
<path d="M4104 4655 c-8 -21 2 -45 19 -45 8 0 20 7 27 15 10 12 10 18 0 30 -7
8 -19 15 -27 15 -7 0 -16 -7 -19 -15z"/>
<path d="M3384 4628 c-18 -8 -20 -13 -10 -33 14 -30 53 -30 58 0 6 29 -19 46
-48 33z"/>
<path d="M1082 4574 c-46 -45 -54 -58 -46 -72 9 -14 31 -17 128 -20 l116 -3
12 26 c13 30 4 53 -28 70 -11 6 -29 20 -42 33 -38 39 -75 30 -140 -34z"/>
<path d="M4166 4584 c-4 -10 -2 -22 3 -27 14 -14 43 0 39 20 -4 24 -34 28 -42
7z"/>
<path d="M2477 4544 c-8 -8 1 -24 14 -24 5 0 9 7 9 15 0 15 -12 20 -23 9z"/>
<path d="M4280 4529 c-92 -36 -70 -168 28 -169 25 0 42 9 65 32 21 21 40 31
55 29 28 -3 52 15 52 41 0 24 -25 34 -58 22 -22 -8 -31 -5 -52 18 -30 32 -56
40 -90 27z m1 -31 c0 -10 2 -10 6 0 2 6 14 12 25 12 13 0 18 -5 15 -13 -3 -8
1 -14 9 -14 7 0 11 4 8 9 -6 10 20 11 29 1 4 -3 -3 -18 -15 -32 l-23 -26 23
19 c22 19 22 19 22 0 0 -16 2 -17 10 -4 8 13 10 13 10 -2 0 -9 -14 -28 -31
-42 -39 -34 -91 -35 -113 -4 -21 29 -22 80 -2 72 11 -4 13 0 9 15 -3 12 -1 21
6 21 6 0 11 -6 12 -12z m184 -28 c4 -6 1 -18 -6 -26 -12 -14 -14 -14 -26 2 -7
9 -10 21 -7 25 7 12 31 11 39 -1z"/>
<path d="M4302 4440 c0 -19 2 -27 5 -17 2 9 2 25 0 35 -3 9 -5 1 -5 -18z"/>
<path d="M4260 4446 c0 -2 7 -7 16 -10 8 -3 12 -2 9 4 -6 10 -25 14 -25 6z"/>
<path d="M2760 4503 c0 -70 -72 -168 -155 -212 -22 -12 -33 -21 -24 -21 28 0
108 58 139 101 16 23 37 65 45 92 18 60 18 67 5 67 -5 0 -10 -12 -10 -27z"/>
<path d="M3970 4521 c0 -13 69 -65 76 -58 6 6 -56 66 -68 67 -5 0 -8 -4 -8 -9z"/>
<path d="M1951 4471 c-9 -6 -8 -10 6 -13 23 -6 43 -70 36 -115 -3 -18 -2 -41
1 -50 6 -15 8 -15 16 -3 13 20 13 112 0 144 -11 29 -41 48 -59 37z"/>
<path d="M3398 4466 c-23 -17 -13 -53 17 -58 18 -4 24 0 27 17 3 12 -1 30 -7
39 -14 19 -15 19 -37 2z"/>
<path d="M907 4432 c-32 -35 -21 -42 63 -42 44 0 80 3 80 8 0 4 -7 18 -16 30
-20 29 -102 32 -127 4z"/>
<path d="M4057 4384 c-4 -4 -7 -16 -7 -26 0 -20 25 -25 36 -7 8 13 -19 43 -29
33z"/>
<path d="M740 4205 c0 -140 2 -165 15 -165 13 0 15 23 15 150 l0 150 240 0
240 0 0 -45 c0 -33 4 -45 15 -45 12 0 15 13 15 60 l0 60 -270 0 -270 0 0 -165z"/>
<path d="M4533 4350 c-12 -5 -27 -19 -34 -31 -10 -20 -8 -25 22 -50 19 -16 37
-29 42 -29 4 0 7 -7 7 -15 0 -9 9 -15 23 -15 30 0 43 10 50 39 5 19 1 25 -24
34 -16 6 -29 17 -29 23 0 7 -8 21 -17 32 -14 16 -23 18 -40 12z m27 -40 c0
-13 -7 -20 -20 -20 -22 0 -23 1 -14 24 9 23 34 20 34 -4z m57 -46 c8 -21 -13
-42 -28 -27 -13 13 -5 43 11 43 6 0 13 -7 17 -16z"/>
<path d="M1665 4321 c-3 -10 -1 -29 4 -42 9 -21 10 -19 10 19 1 45 -4 54 -14
23z"/>
<path d="M370 4311 c-8 -9 -16 -26 -17 -36 -2 -28 29 -76 46 -70 7 3 20 0 27
-6 11 -9 14 -8 14 3 0 8 6 22 13 32 12 16 16 17 35 5 19 -12 24 -11 38 3 20
20 11 54 -17 61 -15 4 -23 -1 -30 -19 -5 -14 -13 -22 -19 -19 -14 9 -12 35 3
35 8 0 7 3 -3 9 -8 6 -18 7 -22 5 -4 -3 -8 0 -8 5 0 17 -43 11 -60 -8z m55
-46 c0 -23 -4 -30 -20 -30 -21 0 -31 25 -21 51 11 28 41 12 41 -21z m105 6 c0
-14 -18 -23 -30 -16 -6 4 -8 11 -5 16 8 12 35 12 35 0z"/>
<path d="M848 4303 c29 -2 74 -2 100 0 26 2 2 3 -53 3 -55 0 -76 -1 -47 -3z"/>
<path d="M1324 4298 c-4 -6 0 -16 9 -22 20 -15 31 -94 18 -128 -6 -16 -7 -28
-2 -28 10 0 31 46 31 68 0 10 5 23 10 28 12 12 3 44 -11 44 -5 0 -9 11 -9 25
0 18 -5 25 -19 25 -11 0 -23 -5 -27 -12z"/>
<path d="M640 4260 c-18 -17 -30 -34 -26 -37 4 -4 21 7 38 25 18 17 29 34 26
37 -3 3 -20 -8 -38 -25z"/>
<path d="M4112 4261 c-8 -22 -19 -30 -51 -38 -38 -10 -43 -9 -61 14 -18 23
-21 24 -55 12 -32 -12 -35 -16 -29 -45 5 -27 1 -34 -26 -54 -28 -20 -35 -21
-56 -10 -21 12 -27 11 -49 -10 -22 -21 -23 -25 -11 -48 19 -36 -6 -92 -41 -92
-33 0 -60 -59 -36 -77 20 -16 9 -97 -17 -123 -18 -18 -19 -17 -42 7 -61 66
-368 241 -453 258 -16 3 -3 -5 30 -18 134 -54 315 -162 420 -251 33 -28 53
-42 45 -31 -12 17 -12 18 0 7 8 -7 15 -18 15 -25 0 -7 7 -12 15 -12 8 -1 14
-6 13 -11 -1 -6 21 -33 49 -60 185 -177 378 -536 433 -802 26 -132 13 -128
-24 7 -53 194 -127 368 -217 508 -109 170 -323 394 -469 490 -109 72 -259 150
-345 179 -66 22 -88 37 -40 28 118 -23 -95 42 -250 75 -229 50 -505 52 -736 6
-132 -27 -246 -56 -241 -61 2 -2 66 10 142 25 77 16 169 31 205 34 48 5 29 -1
-75 -23 -292 -61 -452 -118 -614 -219 -46 -28 -85 -51 -88 -51 -8 0 -83 -61
-143 -116 -30 -29 -70 -64 -88 -79 -35 -29 -150 -177 -217 -278 l-39 -59 -18
67 c-10 36 -26 78 -35 92 -15 23 -122 83 -149 83 -5 0 -16 -24 -23 -52 -8 -29
-27 -86 -42 -126 -18 -45 -29 -91 -29 -122 l0 -50 105 0 105 0 1 83 c1 66 3
75 9 47 8 -32 13 -107 11 -152 -1 -17 -21 -18 -266 -18 -170 0 -265 -4 -265
-10 0 -6 92 -10 256 -10 200 0 255 -3 251 -12 -12 -30 -88 -270 -108 -340 -22
-78 -46 -98 -34 -28 6 35 3 40 -41 78 -52 47 -129 87 -187 97 l-38 7 3 -37 c3
-34 6 -38 53 -54 106 -36 183 -109 206 -195 14 -51 2 -227 -18 -278 -22 -55
-112 -133 -183 -159 -55 -20 -60 -24 -60 -52 0 -29 1 -29 39 -24 54 7 139 47
183 86 36 32 37 32 41 9 4 -19 5 -18 6 6 0 16 3 27 5 25 3 -2 16 -61 30 -130
24 -120 76 -285 118 -377 32 -71 14 -58 -22 15 -41 85 -95 250 -111 340 -7 37
-16 72 -20 76 -13 16 22 -146 53 -243 32 -100 97 -246 129 -291 24 -34 24 -42
0 -34 -14 4 -21 0 -26 -15 -7 -21 -16 -24 -53 -14 -15 4 -22 14 -22 31 0 21
-4 24 -32 21 -25 -2 -34 -8 -36 -24 -2 -12 -14 -26 -27 -32 -21 -10 -27 -8
-39 9 -13 20 -15 20 -45 4 -25 -12 -31 -20 -26 -36 10 -31 -31 -71 -65 -64
-22 5 -29 1 -39 -21 -10 -22 -9 -30 3 -42 20 -20 2 -72 -25 -72 -27 0 -26 -46
1 -53 28 -7 29 -72 1 -80 -25 -6 -17 -57 10 -57 26 0 39 -29 26 -57 -15 -33 6
-56 39 -41 20 10 28 8 48 -11 15 -14 22 -29 19 -45 -4 -19 1 -25 22 -30 20 -5
31 -2 40 10 16 22 61 12 68 -16 7 -28 67 -29 67 -1 0 32 51 42 81 15 25 -22
62 -3 54 29 -4 16 1 29 14 42 18 15 25 16 47 7 32 -15 31 -16 44 9 9 16 8 24
-4 38 -14 15 -14 19 0 39 8 12 21 22 28 22 13 0 26 21 26 40 0 5 -9 12 -20 15
-29 9 -28 70 1 85 19 10 28 4 86 -55 112 -113 335 -270 458 -322 28 -12 79
-33 114 -48 86 -37 202 -75 226 -74 11 0 -16 13 -60 29 -94 33 -195 77 -195
85 0 4 4 4 9 1 5 -3 11 4 14 16 4 13 1 26 -6 30 -18 12 -27 10 -27 -7 0 -18
-24 -30 -40 -20 -8 5 -6 13 5 25 18 20 13 40 -9 40 -8 0 -20 -10 -29 -23 -12
-17 -18 -19 -28 -10 -10 10 -10 15 1 27 15 19 7 46 -14 46 -8 0 -18 -9 -21
-20 -3 -11 -10 -20 -14 -20 -16 0 -19 13 -9 36 16 34 -5 57 -26 29 -8 -11 -12
-23 -10 -27 8 -12 -9 -9 -28 6 -17 12 -17 14 2 31 18 17 19 19 3 30 -14 10
-20 9 -34 -9 -14 -17 -20 -18 -30 -9 -10 10 -9 16 4 31 16 17 16 20 2 32 -13
11 -19 10 -35 -5 -16 -14 -23 -16 -32 -7 -9 9 -7 16 5 30 16 18 16 20 1 33
-14 11 -18 11 -30 -5 -7 -11 -20 -16 -29 -12 -13 5 -13 9 -3 26 7 11 17 20 22
20 4 0 3 7 -4 15 -16 20 -37 19 -49 -2 -8 -15 -11 -15 -25 -4 -15 12 -15 16
-1 31 8 9 15 22 15 28 0 16 -33 15 -48 0 -9 -9 -15 -9 -24 0 -9 9 -8 15 7 26
17 12 17 16 6 30 -13 15 -15 15 -32 0 -31 -28 -53 1 -23 31 13 12 14 18 4 31
-11 13 -15 13 -30 -1 -12 -11 -19 -12 -28 -3 -9 9 -7 17 8 33 18 19 19 24 7
34 -20 16 -47 4 -40 -17 4 -13 2 -12 -10 3 -21 25 -21 41 -2 49 17 6 19 15 5
36 -7 12 -12 12 -22 2 -17 -17 -35 -15 -42 4 -4 11 1 18 14 21 22 6 25 20 10
43 -8 12 -11 12 -28 -3 -10 -9 -22 -14 -25 -10 -12 12 -7 36 10 48 24 18 10
49 -16 35 -28 -14 -41 -13 -41 6 0 9 9 18 20 21 11 3 20 12 20 19 0 20 -27 29
-45 14 -12 -10 -16 -9 -21 5 -6 15 4 29 29 38 5 1 5 10 1 20 -4 12 -12 16 -23
12 -29 -11 -35 -10 -39 7 -2 12 5 19 22 24 28 7 30 11 17 33 -6 9 -18 11 -34
7 -17 -4 -27 -1 -30 8 -7 18 1 26 25 26 13 0 18 6 16 18 -2 11 -13 17 -33 17
-36 0 -42 28 -7 33 39 6 24 47 -17 47 -13 0 -26 5 -28 12 -2 6 6 13 19 15 15
2 23 10 23 23 0 16 -6 20 -28 18 -21 -1 -27 3 -27 18 0 14 7 19 26 19 40 0 28
34 -14 38 -42 4 -44 32 -2 32 17 0 30 4 30 9 0 17 -32 42 -46 37 -9 -3 -14 2
-14 14 0 15 7 20 25 20 37 0 35 38 -2 42 -17 2 -28 9 -28 18 0 10 10 15 28 15
39 -1 37 31 -3 40 -17 4 -30 13 -30 21 0 19 42 35 52 20 5 -6 8 -1 8 12 0 13
-3 21 -8 19 -13 -8 -52 12 -52 28 0 14 17 20 48 16 6 -1 12 5 12 13 0 8 -10
16 -22 18 -30 4 -37 38 -9 38 12 0 21 5 21 11 0 5 6 7 13 3 6 -4 3 2 -8 13
-11 11 -23 19 -27 17 -4 -3 -10 1 -13 7 -12 18 12 34 58 38 14 2 7 31 -9 31
-9 0 -12 -5 -8 -12 5 -9 2 -9 -9 1 -18 14 -24 57 -7 46 11 -7 50 12 50 24 0 5
-12 12 -26 15 -32 8 -25 32 8 28 36 -4 47 35 12 44 -36 9 -32 38 5 31 21 -4
31 -2 35 9 9 24 7 34 -8 34 -7 0 -19 6 -25 14 -16 19 3 30 28 16 16 -8 22 -7
31 9 14 27 13 31 -9 31 -22 0 -35 15 -26 30 4 7 13 7 25 0 15 -8 21 -6 30 9
14 26 13 28 -10 34 -11 3 -20 12 -20 21 0 19 21 21 38 4 9 -9 14 -6 21 13 7
19 5 26 -10 33 -22 10 -26 36 -6 36 7 0 18 -5 24 -11 8 -8 13 -5 18 11 5 15 1
25 -11 34 -21 16 -10 36 21 36 28 0 40 26 18 38 -23 13 -7 35 16 22 14 -7 23
-4 37 11 17 19 17 20 -3 25 -14 4 -20 11 -16 21 3 8 13 13 23 10 9 -2 25 0 34
5 16 9 16 11 0 29 -16 18 -16 19 1 25 11 5 22 1 30 -10 12 -15 13 -15 18 3 2
10 1 25 -4 32 -5 8 -9 22 -9 33 0 17 1 17 25 2 22 -15 27 -15 40 -2 13 12 13
16 0 26 -16 13 -20 40 -7 40 4 0 14 -6 21 -12 10 -11 12 -10 9 2 -2 11 4 14
22 11 24 -3 24 -2 8 16 -21 23 -23 37 -4 30 7 -3 19 0 26 6 10 9 11 9 5 -2 -6
-10 -4 -12 4 -6 8 4 10 17 7 31 -7 26 4 30 32 15 19 -10 50 13 32 24 -17 10
-11 32 10 38 11 3 18 2 15 -3 -3 -4 3 -14 13 -21 15 -13 16 -12 4 3 -14 18 0
34 19 23 6 -4 5 2 -2 13 -17 27 -9 35 26 26 20 -5 23 -9 13 -15 -7 -5 -8 -9
-3 -9 25 0 37 17 26 38 -16 30 -14 35 12 29 27 -7 49 5 45 24 -2 9 7 14 27 15
23 0 29 4 27 17 -4 22 34 23 46 1 11 -19 24 -4 26 29 1 22 26 37 26 15 0 -7
11 1 24 17 20 25 28 28 43 19 23 -14 44 -7 36 12 -8 22 28 30 43 9 8 -11 14
-13 14 -6 0 7 5 9 10 6 6 -3 10 3 10 14 0 23 28 29 48 9 8 -8 14 -5 21 15 10
26 39 32 70 12 9 -5 12 -4 7 3 -8 13 1 19 39 23 17 2 32 6 35 9 7 8 158 31
194 30 16 0 33 5 37 12 7 11 12 10 30 0 18 -11 24 -11 41 5 19 17 20 17 29 0
6 -9 17 -17 25 -17 8 0 12 5 9 10 -11 18 25 23 44 6 20 -18 41 -21 41 -6 0 6
7 10 15 10 8 0 15 -4 15 -10 0 -5 9 -10 20 -10 11 0 20 5 20 10 0 15 19 12 36
-5 17 -17 44 -20 44 -5 0 6 7 10 16 10 8 0 12 -5 9 -10 -3 -6 4 -14 17 -19 14
-5 25 -5 30 2 4 7 16 6 36 -2 17 -7 36 -10 41 -6 6 3 18 -1 27 -9 8 -9 28 -16
44 -16 16 0 32 -5 36 -11 4 -6 19 -9 36 -5 24 5 31 2 35 -14 5 -17 11 -19 39
-14 28 5 33 3 29 -9 -8 -19 23 -31 41 -16 15 12 35 2 62 -30 10 -13 12 -12 12
3 0 15 3 16 15 6 9 -7 13 -15 10 -18 -3 -3 0 -11 7 -19 9 -11 14 -11 29 3 17
15 19 14 34 -22 15 -35 18 -37 29 -21 20 26 39 22 32 -8 -7 -29 17 -46 37 -26
17 17 30 13 24 -8 -2 -10 -1 -25 4 -32 6 -11 12 -9 28 6 26 23 38 13 23 -20
-14 -31 1 -42 34 -24 30 16 39 7 24 -21 -17 -32 3 -50 29 -26 27 25 47 11 27
-19 -14 -21 -14 -25 0 -36 12 -10 17 -9 28 6 17 24 40 11 26 -15 -5 -10 -7
-26 -4 -35 6 -15 8 -15 25 1 25 23 46 8 23 -17 -14 -15 -15 -22 -6 -31 10 -10
17 -10 32 0 11 6 24 12 30 12 15 0 12 -26 -4 -40 -15 -11 -11 -40 4 -40 5 0
16 7 24 16 16 16 36 11 36 -8 0 -6 -8 -16 -17 -23 -15 -11 -15 -15 -4 -29 10
-12 17 -14 25 -6 5 5 16 10 23 10 18 0 17 -29 -2 -36 -11 -5 -12 -10 -3 -24
10 -16 14 -17 34 -4 19 13 22 13 27 0 4 -9 -1 -19 -10 -24 -10 -6 -13 -16 -8
-31 8 -25 30 -28 43 -5 8 14 10 14 21 0 11 -13 10 -19 -8 -33 -20 -16 -21 -20
-7 -38 12 -16 17 -18 27 -7 18 17 39 15 39 -4 0 -9 -9 -18 -21 -21 -12 -4 -18
-11 -15 -20 3 -8 6 -17 6 -19 0 -3 16 -2 35 2 39 7 46 -6 14 -27 -31 -21 -16
-52 22 -44 22 5 29 3 29 -9 0 -8 -9 -17 -20 -21 -17 -5 -18 -9 -7 -32 6 -14
13 -20 15 -14 2 6 12 11 23 11 25 0 25 -30 -1 -37 -22 -6 -24 -11 -11 -31 11
-19 15 -19 33 -4 25 21 32 -14 7 -39 -11 -11 -18 -26 -16 -32 5 -13 11 -13 41
-1 17 7 18 4 13 -23 -4 -21 -1 -35 8 -43 19 -16 19 -37 -1 -57 -12 -13 -13
-18 -3 -24 7 -4 17 -5 22 -2 11 7 28 -17 21 -29 -3 -4 -16 -8 -28 -8 -19 0
-22 -4 -18 -25 3 -20 10 -25 31 -23 18 2 26 -2 26 -12 0 -9 -11 -16 -26 -18
-21 -2 -25 -7 -22 -26 4 -18 10 -22 28 -19 12 3 26 0 30 -6 9 -15 -14 -43 -28
-34 -6 3 -7 1 -3 -6 4 -6 11 -9 16 -6 4 3 11 -2 14 -11 12 -31 6 -44 -19 -44
-19 0 -25 -5 -25 -21 0 -11 5 -17 10 -14 6 4 7 12 4 18 -4 7 6 -1 22 -16 28
-27 28 -29 10 -42 -14 -11 -23 -12 -33 -4 -10 9 -13 6 -13 -16 0 -27 1 -27 18
-12 21 19 32 13 32 -15 0 -10 -10 -22 -24 -27 -13 -5 -26 -17 -29 -25 -5 -12
0 -16 23 -16 39 0 41 -27 3 -32 -20 -2 -29 -9 -31 -25 -3 -19 1 -23 22 -23 16
0 26 -6 26 -15 0 -10 -10 -15 -30 -15 -23 0 -30 -4 -30 -20 0 -15 7 -20 26
-20 19 0 25 -4 22 -17 -2 -13 -11 -17 -29 -15 -18 2 -29 -3 -33 -14 -7 -18 8
-34 32 -34 6 0 12 -7 12 -15 0 -10 -10 -15 -30 -15 -23 0 -30 -5 -30 -19 0
-10 9 -21 20 -24 33 -9 25 -37 -9 -32 -22 2 -30 -1 -34 -16 -4 -14 0 -19 13
-19 23 0 36 -18 22 -32 -7 -7 -17 -6 -31 1 -12 7 -21 8 -21 2 0 -5 -3 -16 -6
-24 -3 -10 3 -17 20 -21 37 -9 23 -39 -14 -31 -38 8 -49 -28 -14 -44 15 -7 22
-16 18 -26 -5 -11 -11 -12 -24 -5 -27 15 -37 12 -43 -10 -3 -11 -2 -18 2 -16
3 2 14 -2 25 -9 25 -18 10 -38 -22 -30 -16 4 -28 1 -33 -7 -13 -19 -11 -28 5
-28 20 0 31 -19 18 -32 -7 -7 -17 -6 -31 1 -16 9 -22 8 -30 -8 -9 -15 -6 -22
12 -34 29 -20 11 -45 -21 -28 -15 8 -23 7 -33 -5 -10 -12 -8 -18 10 -30 17
-12 19 -19 11 -30 -10 -11 -15 -11 -35 2 -20 13 -23 13 -29 -2 -4 -10 1 -25
11 -36 13 -14 14 -21 5 -30 -9 -9 -15 -9 -24 0 -17 17 -35 15 -42 -4 -4 -10 1
-22 10 -29 11 -8 15 -19 10 -30 -6 -16 -8 -17 -24 -1 -10 9 -23 16 -29 16 -19
0 -23 -29 -6 -45 24 -24 0 -45 -25 -22 -15 14 -21 15 -36 4 -16 -12 -16 -14 3
-31 16 -15 18 -22 9 -33 -9 -11 -15 -10 -34 8 -20 19 -24 20 -30 6 -3 -8 0
-25 6 -37 16 -29 -5 -56 -21 -27 -6 9 -16 17 -24 17 -23 0 -28 -20 -9 -41 13
-15 15 -22 6 -31 -9 -9 -16 -7 -31 6 -13 11 -27 16 -38 12 -15 -6 -15 -8 -3
-16 8 -6 11 -10 6 -10 -5 0 -3 -7 5 -16 10 -13 10 -17 -1 -24 -9 -5 -19 -1
-30 13 -15 19 -20 20 -34 8 -12 -10 -14 -17 -6 -25 13 -13 13 -46 0 -46 -5 0
-14 9 -20 20 -14 25 -26 25 -33 0 -3 -11 -1 -20 4 -20 13 0 11 -27 -2 -36 -7
-4 -19 3 -28 15 -18 24 -57 20 -47 -5 3 -8 9 -20 12 -28 3 -9 -3 -19 -16 -26
-13 -7 -20 -8 -17 -3 2 4 0 19 -5 33 -9 24 -10 24 -24 6 -12 -17 -12 -22 1
-36 13 -15 11 -19 -24 -38 -21 -12 -81 -37 -132 -56 -120 -44 -172 -66 -167
-71 5 -5 98 24 188 58 36 14 88 34 117 45 154 59 364 210 515 371 72 76 192
242 236 326 71 137 143 330 177 483 13 56 20 72 34 72 25 0 68 36 86 71 9 16
22 29 30 29 10 0 15 10 15 30 0 24 -4 30 -21 30 -19 0 -20 2 -8 16 11 14 10
18 -6 30 -13 9 -22 11 -29 4 -17 -17 -23 -12 -40 30 -20 51 -20 52 7 48 29 -3
77 29 59 41 -14 8 -7 36 15 62 16 19 8 46 -17 54 -10 3 -21 17 -24 30 -7 29
-21 32 -42 10 -9 -8 -19 -15 -22 -15 -4 0 -15 55 -25 123 -20 135 -67 288
-127 407 -40 81 -57 145 -41 155 17 10 49 -13 53 -37 2 -19 10 -24 41 -26 34
-3 38 -1 43 26 5 25 13 32 47 41 37 9 44 8 64 -11 20 -18 26 -19 53 -8 22 9
30 19 30 37 0 17 19 43 60 84 53 52 63 58 84 49 21 -8 27 -5 45 23 l20 32 -21
22 -22 23 20 47 c15 38 25 48 52 55 28 8 32 13 32 42 0 29 -5 36 -29 44 -24 8
-30 18 -36 52 -6 35 -4 46 13 62 17 17 18 25 10 49 -8 23 -16 29 -38 29 -22 0
-34 8 -51 36 -19 32 -21 41 -10 68 10 28 9 33 -10 49 -20 16 -24 16 -45 2 -21
-14 -25 -13 -54 11 -26 22 -30 32 -25 55 5 24 2 30 -26 44 -31 16 -32 16 -55
-8 -21 -23 -27 -24 -58 -15 -25 8 -38 20 -45 40 -8 23 -16 28 -45 28 -28 0
-36 -5 -44 -29z m-104 -105 c-70 -30 -137 -75 -173 -118 -25 -29 -71 -118 -89
-172 -4 -10 -9 -17 -11 -14 -11 11 38 127 73 173 51 68 186 154 242 154 8 0
-11 -10 -42 -23z m305 -25 c95 -48 149 -105 187 -198 30 -71 32 -84 28 -163
-4 -70 -10 -97 -36 -149 -39 -80 -62 -105 -130 -143 -28 -17 -56 -36 -60 -43
-10 -18 -114 -45 -174 -45 -26 0 -71 9 -99 19 -45 17 -49 18 -37 3 7 -9 0 -6
-15 7 -15 14 -26 26 -24 27 1 2 22 -2 47 -7 24 -5 55 -8 69 -6 24 3 24 4 6 11
-140 57 -188 97 -236 194 -31 61 -34 75 -33 152 1 139 56 248 160 317 110 73
233 82 347 24z m-1510 -8 c-7 -2 -19 -2 -25 0 -7 3 -2 5 12 5 14 0 19 -2 13
-5z m-2000 -697 c25 -19 22 -27 -28 -76 -25 -24 -45 -50 -45 -57 0 -7 -7 -13
-15 -13 -24 0 -18 15 30 68 42 46 44 51 25 57 -23 7 -26 21 -7 28 18 8 21 7
40 -7z m3505 -808 c30 -30 4 -94 -35 -86 -19 4 -39 58 -30 82 7 19 48 21 65 4z
m-4 -314 c11 -29 6 -53 -16 -74 -36 -33 -51 -26 -45 20 8 61 46 94 61 54z
m-3323 -751 c13 -16 12 -17 -3 -4 -10 7 -18 15 -18 17 0 8 8 3 21 -13z m-94
-4 c38 -14 100 -75 126 -124 30 -56 30 -164 0 -221 -22 -40 -72 -87 -123 -114
-37 -20 -148 -17 -190 5 -108 56 -156 134 -148 240 3 34 13 75 21 92 20 38 76
92 120 115 37 20 149 24 194 7z"/>
<path d="M4225 4121 c121 -46 193 -112 236 -218 17 -42 19 -44 13 -13 -18 104
-147 223 -264 244 -28 5 -25 2 15 -13z"/>
<path d="M4026 4121 c-4 -5 3 -7 14 -4 23 6 26 13 6 13 -8 0 -17 -4 -20 -9z"/>
<path d="M3984 4055 c-63 -38 -124 -138 -124 -205 l0 -30 93 0 c86 0 93 2 102
22 6 13 24 32 42 43 32 20 32 20 33 104 l0 83 -45 -6 c-29 -5 -45 -4 -45 3 0
16 -11 13 -56 -14z"/>
<path d="M4180 3992 l0 -87 36 40 c19 22 42 50 51 63 17 24 33 29 33 10 0 -7
-12 -43 -26 -80 -24 -64 -24 -68 -8 -92 15 -24 22 -26 91 -26 l75 0 -7 33
c-23 105 -106 194 -203 215 l-42 10 0 -86z"/>
<path d="M4176 3865 c-58 -66 -66 -95 -26 -95 11 0 20 3 21 8 0 4 2 16 3 28 1
11 17 42 35 68 18 26 31 49 29 52 -3 2 -31 -25 -62 -61z"/>
<path d="M4481 3834 c0 -11 3 -14 6 -6 3 7 2 16 -1 19 -3 4 -6 -2 -5 -13z"/>
<path d="M3863 3725 c12 -107 131 -218 227 -213 41 3 45 6 48 31 2 19 9 27 23
27 15 0 19 -7 19 -31 0 -29 1 -30 33 -24 46 10 122 61 158 106 26 34 59 111
59 141 0 4 -36 8 -80 8 -59 0 -80 -3 -80 -13 0 -23 -56 -68 -92 -73 -48 -8
-107 20 -120 58 l-10 28 -95 0 -96 0 6 -45z"/>
<path d="M4462 3688 c-24 -87 -126 -185 -224 -217 -20 -7 -42 -19 -49 -27 -7
-8 23 1 67 21 115 52 204 145 219 229 10 49 2 46 -13 -6z"/>
<path d="M709 1500 c-117 -62 -151 -205 -72 -308 75 -99 251 -94 319 8 32 48
43 128 24 185 -16 47 -66 104 -107 121 -46 20 -121 17 -164 -6z m106 -45 c25
-3 47 -10 50 -16 9 -14 25 -11 25 5 0 23 17 28 35 9 16 -16 16 -18 -3 -33 -16
-14 -18 -19 -7 -34 12 -16 14 -16 20 5 7 22 8 22 21 4 19 -25 18 -55 -2 -55
-9 0 -14 -7 -12 -17 2 -10 11 -17 21 -17 13 1 16 -4 11 -25 -12 -49 -20 -57
-35 -33 -13 21 -13 20 -31 -8 -25 -41 -72 -63 -123 -57 -136 15 -170 183 -53
258 23 14 26 19 11 14 -14 -4 -24 -2 -24 4 -5 30 -2 36 21 41 20 5 26 2 28
-16 3 -18 12 -23 47 -29z m39 45 c47 -18 22 -49 -29 -36 -16 4 -25 13 -25 26
0 22 16 25 54 10z m-159 -50 c3 -5 1 -19 -6 -31 -10 -19 -12 -20 -27 -6 -13
13 -13 19 -2 31 14 18 26 20 35 6z m-41 -93 c-7 -18 -44 -24 -44 -6 0 6 5 20
11 31 10 18 13 18 25 6 8 -8 12 -22 8 -31z m-4 -76 c0 -17 -5 -33 -11 -36 -14
-9 -18 -4 -25 33 -6 28 -4 32 15 32 17 0 21 -6 21 -29z m40 -65 c7 -10 8 -21
3 -31 -8 -13 -12 -13 -28 -2 -11 9 -16 20 -12 31 8 20 21 21 37 2z m250 -11
c0 -6 -9 -20 -19 -29 -18 -17 -20 -16 -26 4 -4 11 -1 27 5 35 13 16 40 9 40
-10z m-179 -35 c10 -6 19 -15 19 -20 0 -15 -56 -12 -69 3 -20 25 13 36 50 17z
m119 -4 c0 -18 -6 -22 -47 -31 -27 -5 -33 -3 -33 10 0 16 31 33 63 34 9 1 17
-5 17 -13z"/>
<path d="M747 1399 c-9 -5 -24 -24 -33 -40 -12 -25 -13 -37 -4 -65 23 -69 99
-87 151 -35 38 39 38 79 0 120 -31 33 -78 41 -114 20z m77 -58 c15 -17 15 -20
-3 -42 -16 -20 -23 -22 -38 -13 -23 14 -28 41 -13 59 17 20 34 19 54 -4z"/>
<path d="M2792 4271 c-13 -8 -6 -41 8 -41 4 0 13 6 19 14 14 17 -8 39 -27 27z"/>
<path d="M826 4248 c-19 -26 -21 -80 -5 -110 8 -16 17 -19 40 -14 15 3 31 1
34 -4 3 -6 10 -10 15 -10 13 0 40 54 40 80 0 12 -7 34 -15 50 -13 26 -21 30
-55 30 -29 0 -43 -6 -54 -22z m91 -20 c15 -33 -1 -68 -30 -68 -29 0 -47 17
-47 45 0 46 59 63 77 23z"/>
<path d="M960 4260 c0 -6 47 -10 120 -10 73 0 120 4 120 10 0 6 -47 10 -120
10 -73 0 -120 -4 -120 -10z"/>
<path d="M2085 4260 c-9 -15 4 -30 26 -30 23 0 26 25 3 34 -21 8 -22 8 -29 -4z"/>
<path d="M1222 4217 c-39 -42 -19 -97 30 -82 19 6 21 5 11 -6 -18 -18 -17
-121 2 -145 13 -17 14 -13 15 48 0 60 3 69 30 96 36 36 38 64 8 92 -29 27 -69
25 -96 -3z m59 -37 c-13 -11 -28 -20 -35 -20 -6 1 0 10 13 20 13 11 28 20 35
20 6 -1 0 -10 -13 -20z"/>
<path d="M524 4185 c-35 -54 18 -116 71 -81 17 11 25 25 25 46 0 58 -65 82
-96 35z m70 -21 c7 -19 -10 -44 -29 -44 -19 0 -38 28 -31 45 7 20 52 19 60 -1z"/>
<path d="M286 4178 c-10 -5 -20 -7 -23 -4 -9 9 -45 -43 -38 -54 4 -6 1 -17 -5
-25 -10 -12 -9 -16 4 -21 9 -3 16 -15 16 -26 0 -14 5 -18 16 -14 8 3 23 2 32
-3 12 -6 24 -5 36 5 10 7 23 11 27 8 5 -3 9 4 9 15 0 11 4 22 9 25 11 7 1 57
-13 71 -28 24 -53 33 -70 23z m44 -38 c11 -11 20 -27 20 -35 0 -19 -36 -55
-55 -55 -18 0 -55 35 -55 53 0 25 32 53 63 56 4 1 16 -8 27 -19z"/>
<path d="M1083 4173 c-7 -2 -13 -11 -13 -18 0 -15 41 -28 63 -19 14 5 13 8 -1
25 -17 19 -26 22 -49 12z"/>
<path d="M1475 4150 c3 -5 21 -10 40 -10 19 0 37 5 40 10 4 6 -12 10 -40 10
-28 0 -44 -4 -40 -10z"/>
<path d="M426 4123 c-9 -22 10 -41 25 -26 9 9 8 16 -4 27 -14 14 -16 14 -21
-1z"/>
<path d="M1470 4120 c0 -6 27 -10 60 -10 33 0 60 4 60 10 0 6 -27 10 -60 10
-33 0 -60 -4 -60 -10z"/>
<path d="M4651 4104 c-26 -33 -27 -58 -1 -84 29 -29 74 -26 99 6 12 15 21 32
21 39 0 27 -41 65 -70 65 -19 0 -36 -9 -49 -26z m48 -20 c-11 -14 -10 -18 6
-30 25 -19 4 -45 -23 -28 -34 22 -27 74 9 74 19 0 20 -2 8 -16z"/>
<path d="M1060 4085 c0 -12 14 -15 70 -15 56 0 70 3 70 15 0 12 -14 15 -70 15
-56 0 -70 -3 -70 -15z"/>
<path d="M1523 4093 c9 -2 23 -2 30 0 6 3 -1 5 -18 5 -16 0 -22 -2 -12 -5z"/>
<path d="M485 4079 c-10 -15 1 -23 20 -15 9 3 13 10 10 16 -8 13 -22 13 -30
-1z"/>
<path d="M835 4080 c-4 -6 13 -10 45 -10 32 0 49 4 45 10 -3 6 -24 10 -45 10
-21 0 -42 -4 -45 -10z"/>
<path d="M1338 4084 c-5 -4 -8 -57 -8 -118 0 -76 3 -107 10 -100 7 7 10 53 8
118 -2 59 -6 104 -10 100z"/>
<path d="M1848 4073 c7 -3 16 -2 19 1 4 3 -2 6 -13 5 -11 0 -14 -3 -6 -6z"/>
<path d="M1738 4045 c-97 -36 -319 -166 -406 -238 -97 -82 -243 -240 -306
-334 -38 -57 -67 -106 -63 -109 3 -3 13 8 21 25 56 108 242 316 386 432 69 56
271 174 350 205 38 15 70 29 70 31 0 5 -13 2 -52 -12z"/>
<path d="M455 4030 c-4 -6 -3 -16 3 -22 6 -6 12 -6 17 2 4 6 3 16 -3 22 -6 6
-12 6 -17 -2z"/>
<path d="M1381 4022 c-8 -15 -7 -23 4 -32 21 -18 47 -4 43 22 -4 29 -34 35
-47 10z"/>
<path d="M660 4017 c0 -7 17 -23 38 -35 21 -11 46 -30 57 -42 17 -19 29 -20
252 -20 l233 0 0 -40 0 -40 -205 0 c-178 0 -204 -2 -199 -15 5 -13 40 -15 225
-15 l219 0 0 60 c0 47 -3 60 -15 60 -23 0 -65 49 -65 76 l0 24 -270 0 c-217 0
-270 -3 -270 -13z"/>
<path d="M2343 4022 c-29 -4 -57 -12 -62 -17 -5 -6 -24 -59 -41 -120 -18 -60
-37 -115 -44 -121 -6 -6 -67 -30 -135 -52 l-124 -42 -96 73 c-52 39 -101 76
-109 80 -9 6 -36 -6 -82 -37 -91 -60 -228 -166 -264 -205 -34 -36 -32 -43 37
-150 47 -73 53 -50 -56 -211 l-68 -100 -123 0 -123 0 -36 -92 c-40 -106 -77
-234 -77 -266 0 -21 107 -115 180 -158 29 -18 30 -21 30 -85 l0 -68 -107 -74
-108 -74 3 -49 c3 -60 36 -196 69 -286 l25 -68 127 0 126 0 44 -78 c25 -42 65
-107 89 -144 l44 -67 -50 -83 c-80 -132 -84 -119 61 -236 69 -56 148 -116 176
-133 l50 -31 30 18 c16 11 68 47 116 81 83 59 89 62 114 49 14 -7 76 -30 136
-50 l110 -36 33 -117 c18 -65 37 -122 43 -128 12 -12 267 -20 354 -10 l63 6
32 115 c18 63 38 120 44 128 8 11 141 58 262 94 6 1 57 -31 113 -73 57 -41
109 -75 116 -75 32 0 363 250 365 275 0 6 -25 54 -55 107 -30 53 -55 101 -55
107 0 5 21 40 46 76 25 36 63 96 83 133 l36 67 131 3 132 3 26 72 c28 76 72
242 77 292 4 31 -18 52 -164 152 l-47 33 0 64 c0 56 3 67 23 81 84 60 172 127
178 136 7 13 -49 209 -89 304 l-29 70 -84 1 c-175 2 -163 -1 -189 47 -13 23
-50 79 -82 123 l-59 82 57 93 57 93 -50 45 c-58 54 -198 164 -265 210 l-47 32
-111 -79 -110 -79 -131 41 c-72 23 -134 48 -139 56 -4 8 -22 65 -40 127 -26
90 -37 112 -54 117 -35 10 -277 15 -333 8z m327 -407 c315 -48 627 -243 797
-499 162 -244 222 -488 189 -771 -18 -153 -54 -266 -124 -399 -70 -130 -106
-180 -200 -278 -162 -168 -364 -279 -597 -328 -373 -77 -735 16 -1027 264
-121 102 -249 288 -319 463 -99 248 -98 588 2 830 62 149 161 295 270 398 104
99 148 130 270 193 242 126 480 167 739 127z"/>
<path d="M2473 3573 c-30 -4 -33 -7 -44 -62 l-11 -58 -95 -12 c-106 -14 -110
-13 -138 48 l-17 39 -44 -16 c-48 -18 -46 -10 -28 -101 5 -27 1 -31 -53 -59
-32 -16 -72 -38 -90 -48 l-32 -19 -39 38 c-21 20 -43 37 -49 37 -6 0 -25 -12
-42 -26 l-31 -25 26 -50 25 -50 -20 -27 c-11 -15 -37 -44 -58 -65 l-40 -38
-47 21 c-61 26 -63 26 -82 -11 -16 -31 -16 -32 21 -69 l38 -38 -26 -46 c-14
-25 -31 -62 -37 -82 l-12 -36 -59 6 c-63 7 -73 1 -80 -54 -3 -21 3 -29 44 -50
l49 -25 -7 -50 c-11 -92 -12 -93 -71 -106 l-54 -12 0 -48 0 -48 43 -6 c61 -9
65 -14 77 -74 15 -82 14 -85 -40 -115 -27 -15 -50 -29 -50 -30 0 -2 7 -20 15
-40 l16 -37 57 6 57 6 32 -77 32 -77 -34 -41 c-32 -40 -33 -42 -18 -71 9 -16
17 -32 19 -34 1 -1 26 5 55 14 l53 18 61 -69 62 -68 -25 -50 -25 -50 32 -28
32 -29 48 35 48 35 37 -25 c21 -14 62 -36 91 -49 l53 -24 -9 -38 c-16 -72 -15
-75 56 -97 16 -5 25 3 45 42 14 26 30 47 35 47 6 -1 52 -7 102 -14 l93 -14 11
-59 12 -59 46 3 46 3 10 55 10 55 70 11 c39 6 85 14 103 18 29 7 34 5 50 -24
36 -67 42 -71 86 -53 37 15 38 17 32 54 -3 20 -9 44 -12 53 -5 12 4 20 32 32
22 9 65 32 96 51 l57 35 45 -37 45 -36 30 22 c37 27 38 41 8 95 l-24 40 61 68
61 68 53 -20 53 -21 20 32 c10 18 19 34 19 37 0 3 -16 22 -36 43 l-37 38 36
77 37 77 54 -3 55 -4 15 37 c9 21 16 38 16 39 0 1 -24 15 -53 30 l-53 29 13
71 c7 39 12 72 13 73 0 0 23 4 50 8 55 8 73 27 68 73 -3 24 -10 29 -60 40 -61
15 -61 15 -73 108 l-7 50 41 19 c59 26 65 36 47 80 l-16 37 -54 -6 -53 -7 -35
73 -36 73 39 40 39 40 -20 33 c-23 38 -24 38 -86 12 -39 -17 -50 -18 -59 -8
-7 7 -36 39 -64 71 l-51 58 26 44 c30 51 28 64 -15 94 l-30 22 -46 -42 -46
-42 -27 20 c-16 12 -56 35 -91 52 l-63 32 7 42 c4 23 8 49 11 58 3 11 -7 19
-37 28 -45 14 -55 7 -80 -51 -8 -19 -19 -28 -34 -28 -51 0 -180 22 -186 32 -4
6 -10 29 -13 51 -7 40 -22 69 -35 65 -3 0 -20 -3 -38 -5z m7 -188 c0 -8 -7
-15 -15 -15 -8 0 -15 7 -15 15 0 8 7 15 15 15 8 0 15 -7 15 -15z m40 0 c0 -8
-7 -15 -15 -15 -8 0 -15 7 -15 15 0 8 7 15 15 15 8 0 15 -7 15 -15z m-305 -45
c0 -8 -8 -16 -17 -18 -13 -2 -18 3 -18 18 0 15 5 20 18 18 9 -2 17 -10 17 -18z
m585 0 c0 -13 -7 -20 -20 -20 -13 0 -20 7 -20 20 0 13 7 20 20 20 13 0 20 -7
20 -20z m-100 -39 c99 -26 232 -89 300 -140 111 -83 205 -186 251 -273 24 -46
52 -102 61 -124 21 -52 48 -181 48 -231 0 -21 4 -33 8 -27 4 6 17 16 30 23 52
27 96 -46 55 -91 -20 -22 -51 -23 -73 -3 -15 13 -17 6 -28 -79 -25 -199 -127
-403 -266 -529 -104 -95 -245 -172 -381 -208 -101 -26 -295 -29 -401 -6 -275
60 -505 252 -614 514 -33 80 -70 232 -70 292 0 32 -1 33 -18 18 -37 -34 -102
-9 -102 37 0 27 9 40 38 55 19 10 28 10 47 -3 14 -9 26 -16 28 -16 2 0 7 31
11 70 19 208 145 415 351 578 88 69 250 139 377 161 82 15 262 6 348 -18z
m-747 -95 c8 -20 -20 -43 -35 -28 -14 14 -3 42 16 42 7 0 16 -6 19 -14z m1123
-7 c3 -6 0 -17 -7 -25 -18 -17 -44 -2 -36 20 7 18 33 21 43 5z m-1130 -1468
c-9 -14 -33 -14 -41 -1 -4 6 -1 18 6 26 11 13 14 13 27 0 8 -8 11 -19 8 -25z
m1132 11 c3 -17 -2 -22 -17 -22 -14 0 -21 6 -21 18 0 38 33 41 38 4z"/>
<path d="M2425 3223 c-11 -2 -33 -17 -50 -33 -16 -15 -46 -31 -66 -34 -51 -9
-84 -38 -104 -90 -19 -48 -21 -94 -13 -276 5 -130 17 -180 42 -180 9 0 19 -16
25 -38 6 -21 22 -53 36 -72 18 -25 25 -46 25 -81 0 -46 2 -49 82 -124 l82 -76
-34 -32 c-19 -18 -50 -50 -68 -71 -18 -21 -35 -37 -37 -35 -1 2 -17 34 -35 72
-29 61 -31 74 -28 147 2 44 2 80 1 80 -2 0 -30 -20 -63 -44 -33 -25 -90 -54
-127 -66 -112 -37 -236 -90 -271 -117 -18 -13 -39 -39 -46 -56 -17 -41 -1 -76
81 -169 86 -100 140 -142 249 -198 89 -45 236 -91 249 -78 3 2 -13 92 -34 199
-40 197 -54 289 -46 289 2 0 17 -25 31 -55 15 -30 31 -55 35 -55 4 0 21 16 38
35 l31 36 16 -34 c15 -32 15 -42 -4 -153 -12 -65 -24 -146 -27 -179 -4 -33 -9
-68 -11 -77 -5 -16 5 -18 106 -18 l111 0 -6 33 c-3 17 -17 102 -31 187 -34
211 -22 271 42 195 l32 -38 30 59 c28 53 31 56 32 29 0 -22 -56 -322 -84 -446
-3 -15 2 -15 58 -3 141 32 293 113 392 212 72 71 154 176 154 197 0 6 -13 30
-29 52 -34 48 -104 84 -256 132 -68 22 -124 49 -173 82 l-73 49 7 -75 c6 -72
5 -79 -27 -150 -19 -41 -36 -73 -39 -72 -3 1 -34 33 -69 70 l-65 68 82 75 c78
72 82 78 82 119 0 28 10 62 30 100 17 31 30 63 30 70 0 7 11 20 24 29 32 20
54 115 37 161 -7 21 -8 42 -1 65 6 19 10 65 10 101 0 110 -40 191 -100 204
-15 3 -33 16 -40 29 -7 13 -24 29 -39 36 -28 14 -153 22 -186 13z"/>
<path d="M1550 2481 c0 -6 5 -13 10 -16 6 -3 10 1 10 9 0 9 -4 16 -10 16 -5 0
-10 -4 -10 -9z"/>
<path d="M3410 2474 c0 -8 5 -12 10 -9 6 3 10 10 10 16 0 5 -4 9 -10 9 -5 0
-10 -7 -10 -16z"/>
<path d="M2075 3965 c-98 -26 -183 -58 -260 -98 -70 -37 -50 -33 42 7 101 45
216 83 276 91 26 4 50 11 53 16 8 13 -12 10 -111 -16z"/>
<path d="M2782 3984 c3 -3 49 -16 102 -29 86 -21 272 -93 304 -118 8 -6 12 -6
12 0 0 21 -206 105 -324 134 -85 20 -103 23 -94 13z"/>
<path d="M417 3966 c-6 -16 19 -30 28 -16 7 11 -2 30 -15 30 -4 0 -10 -6 -13
-14z"/>
<path d="M3175 3970 c3 -5 8 -10 11 -10 2 0 4 5 4 10 0 6 -5 10 -11 10 -5 0
-7 -4 -4 -10z"/>
<path d="M560 3915 c-7 -8 -18 -15 -25 -15 -7 0 -25 -14 -40 -32 -25 -29 -27
-37 -21 -86 7 -62 56 -154 98 -185 76 -57 156 5 194 150 19 74 19 78 -22 123
-50 55 -154 81 -184 45z m42 -89 c18 -8 50 -18 70 -21 47 -7 62 -33 55 -94 -4
-36 -13 -52 -41 -78 -42 -38 -59 -40 -104 -13 -52 32 -81 122 -48 149 8 7 18
26 21 42 8 34 5 33 47 15z"/>
<path d="M385 3911 c-3 -5 -1 -12 5 -16 12 -7 30 2 30 16 0 12 -27 12 -35 0z"/>
<path d="M2150 3910 c0 -5 5 -10 10 -10 6 0 10 5 10 10 0 6 -4 10 -10 10 -5 0
-10 -4 -10 -10z"/>
<path d="M890 3880 c0 -6 33 -10 80 -10 47 0 80 4 80 10 0 6 -33 10 -80 10
-47 0 -80 -4 -80 -10z"/>
<path d="M2051 3876 c-1 -5 4 -26 11 -47 12 -43 28 -54 21 -15 -4 18 0 26 13
29 13 3 12 4 -3 2 -13 -1 -25 6 -31 19 -6 12 -11 17 -11 12z"/>
<path d="M2877 3867 c-11 -29 -9 -53 4 -40 6 6 9 21 7 34 -3 21 -4 22 -11 6z"/>
<path d="M355 3861 c-3 -5 8 -16 24 -24 25 -12 32 -13 41 -2 12 15 -3 30 -20
20 -5 -3 -10 -1 -10 4 0 13 -27 14 -35 2z"/>
<path d="M1960 3868 c0 -4 5 -19 12 -33 11 -24 9 -29 -12 -47 l-25 -19 24 12
c21 10 27 8 43 -12 l19 -24 -14 36 c-17 43 -46 97 -47 87z"/>
<path d="M2830 3859 c0 -5 5 -7 10 -4 6 3 10 8 10 11 0 2 -4 4 -10 4 -5 0 -10
-5 -10 -11z"/>
<path d="M3045 3830 c27 -12 43 -12 25 0 -8 5 -22 9 -30 9 -10 0 -8 -3 5 -9z"/>
<path d="M2980 3817 c0 -1 -4 -17 -9 -35 -11 -38 -5 -43 9 -7 9 22 13 24 31
15 32 -18 31 -7 -2 12 -16 9 -29 16 -29 15z"/>
<path d="M327 3804 c-13 -13 -7 -24 14 -24 11 0 19 5 17 12 -5 14 -22 21 -31
12z"/>
<path d="M302 3736 c1 -10 8 -17 13 -17 15 1 12 24 -3 29 -9 3 -13 -2 -10 -12z"/>
<path d="M1053 3731 l-22 -18 21 -20 20 -21 20 20 c20 20 20 21 2 39 -18 17
-20 17 -41 0z"/>
<path d="M860 3707 c0 -9 -6 -20 -13 -24 -8 -4 -17 -20 -20 -34 -6 -22 -3 -28
14 -32 12 -3 18 -10 15 -15 -3 -5 12 -9 34 -8 23 0 40 6 40 12 0 7 7 14 15 18
15 5 13 18 -8 66 -16 35 -15 34 -32 20 -12 -10 -18 -10 -30 0 -12 10 -15 10
-15 -3z m60 -32 c14 -17 5 -51 -15 -59 -8 -3 -24 3 -37 14 -22 18 -23 18 -4
39 22 25 39 27 56 6z"/>
<path d="M270 3676 c0 -8 4 -17 9 -20 11 -7 33 18 24 27 -12 12 -33 7 -33 -7z"/>
<path d="M4657 3673 c-12 -11 -8 -23 8 -23 8 0 15 7 15 15 0 16 -12 20 -23 8z"/>
<path d="M387 3646 c-10 -8 -14 -20 -10 -34 10 -38 63 -24 63 16 0 4 -8 12
-18 18 -13 9 -22 9 -35 0z"/>
<path d="M242 3618 c5 -15 28 -18 29 -3 0 6 -7 12 -17 13 -10 3 -15 -1 -12
-10z"/>
<path d="M4680 3605 c0 -8 7 -15 15 -15 8 0 15 7 15 15 0 8 -7 15 -15 15 -8 0
-15 -7 -15 -15z"/>
<path d="M537 3573 c-7 -11 18 -127 33 -152 7 -11 9 3 10 50 0 50 -5 72 -18
90 -11 12 -22 18 -25 12z"/>
<path d="M693 3558 c-24 -25 -29 -75 -14 -128 6 -21 10 -15 25 41 10 36 16 75
14 88 l-3 23 -22 -24z"/>
<path d="M220 3555 c0 -8 7 -15 15 -15 8 0 15 7 15 15 0 8 -7 15 -15 15 -8 0
-15 -7 -15 -15z"/>
<path d="M435 3534 c-103 -49 -119 -77 -124 -216 l-3 -108 35 0 36 0 4 83 3
82 2 -82 2 -83 101 0 102 0 -6 58 c-3 31 -17 86 -32 122 -14 36 -31 90 -38
121 l-12 56 -70 -33z m66 -104 c5 0 9 -4 9 -10 0 -5 -9 -10 -20 -10 -28 0 -26
-5 20 -57 42 -48 50 -73 24 -73 -9 0 -14 6 -11 13 3 6 -18 36 -46 64 -49 51
-50 53 -32 68 11 8 26 12 33 10 8 -3 18 -5 23 -5z"/>
<path d="M4704 3549 c-10 -17 13 -36 27 -22 12 12 4 33 -11 33 -5 0 -12 -5
-16 -11z"/>
<path d="M617 3493 c-9 -49 -9 -211 -1 -252 4 -18 13 -31 22 -31 13 0 14 21
10 150 -5 150 -19 209 -31 133z"/>
<path d="M197 3504 c-9 -10 2 -24 19 -24 8 0 14 7 14 15 0 15 -21 21 -33 9z"/>
<path d="M4737 3494 c-14 -14 -7 -35 11 -32 9 2 17 10 17 17 0 16 -18 25 -28
15z"/>
<path d="M1285 3450 c10 -11 23 -20 28 -20 6 0 2 9 -8 20 -10 11 -23 20 -28
20 -6 0 -2 -9 8 -20z"/>
<path d="M3665 3450 c-10 -11 -13 -20 -8 -20 13 0 38 29 31 35 -3 3 -13 -4
-23 -15z"/>
<path d="M175 3439 c-10 -15 1 -23 20 -15 9 3 13 10 10 16 -8 13 -22 13 -30
-1z"/>
<path d="M4506 3409 c-22 -18 -26 -28 -26 -76 0 -104 61 -172 129 -143 52 21
89 132 65 195 -17 44 -122 60 -168 24z"/>
<path d="M4760 3414 c0 -9 5 -14 12 -12 18 6 21 28 4 28 -9 0 -16 -7 -16 -16z"/>
<path d="M1329 3368 c-46 -56 -59 -79 -30 -54 16 15 24 17 33 8 20 -20 32 -13
13 8 -16 18 -17 22 -3 38 17 20 31 42 26 42 -2 0 -20 -19 -39 -42z"/>
<path d="M3625 3379 c24 -30 25 -33 9 -50 -9 -11 -12 -19 -6 -19 6 0 14 5 17
11 5 7 14 4 26 -7 10 -9 19 -14 19 -11 0 13 -72 107 -82 107 -5 0 2 -14 17
-31z"/>
<path d="M3732 3387 c-21 -22 -21 -22 -2 -47 20 -25 28 -18 10 10 -6 10 -4 20
7 32 24 27 10 32 -15 5z"/>
<path d="M1220 3382 c20 -16 21 -21 11 -43 l-12 -24 20 25 21 25 -21 18 c-12
9 -26 17 -31 17 -6 0 0 -8 12 -18z"/>
<path d="M155 3380 c-7 -12 2 -30 16 -30 5 0 9 9 9 20 0 21 -15 27 -25 10z"/>
<path d="M4780 3355 c0 -8 7 -15 15 -15 8 0 15 7 15 15 0 8 -7 15 -15 15 -8 0
-15 -7 -15 -15z"/>
<path d="M130 3305 c0 -8 7 -15 15 -15 8 0 15 7 15 15 0 8 -7 15 -15 15 -8 0
-15 -7 -15 -15z"/>
<path d="M4800 3295 c0 -10 7 -15 18 -13 21 4 19 22 -2 26 -10 2 -16 -3 -16
-13z"/>
<path d="M1130 3284 c0 -8 32 -33 43 -34 5 0 5 4 2 10 -8 13 -45 33 -45 24z"/>
<path d="M3804 3275 c-16 -12 -16 -14 -3 -15 9 0 22 7 29 15 16 19 0 19 -26 0z"/>
<path d="M1235 3237 c-10 -18 -23 -35 -28 -38 -5 -3 -2 -9 7 -12 11 -4 16 -1
16 11 0 10 6 26 13 36 12 16 17 17 36 6 15 -8 21 -8 17 -1 -4 6 -15 15 -25 20
-14 8 -21 4 -36 -22z"/>
<path d="M3694 3248 c-17 -12 -21 -17 -9 -13 35 12 38 11 54 -20 9 -16 17 -32
19 -34 1 -2 4 -2 7 1 3 3 -5 24 -18 46 l-23 41 -30 -21z"/>
<path d="M117 3254 c-13 -13 -7 -24 14 -24 11 0 19 5 17 12 -5 14 -22 21 -31
12z"/>
<path d="M4825 3239 c-10 -15 1 -23 20 -15 9 3 13 10 10 16 -8 13 -22 13 -30
-1z"/>
<path d="M4198 3232 c-35 -4 -38 -32 -3 -32 14 0 29 -8 35 -20 6 -11 18 -20
26 -20 9 0 18 9 21 20 3 13 14 20 29 20 32 0 31 26 -1 32 -30 6 -35 2 -35 -29
0 -14 -6 -23 -15 -23 -9 0 -15 9 -15 24 0 29 -6 33 -42 28z"/>
<path d="M105 3190 c-8 -13 4 -32 16 -25 12 8 12 35 0 35 -6 0 -13 -4 -16 -10z"/>
<path d="M231 3164 c-25 -42 -25 -44 -6 -44 10 0 15 -10 15 -30 0 -20 5 -30
15 -30 10 0 15 10 15 30 0 20 5 30 15 30 20 0 19 3 -9 45 l-24 35 -21 -36z"/>
<path d="M4842 3174 c4 -21 22 -23 26 -1 2 10 -3 17 -13 17 -10 0 -15 -6 -13
-16z"/>
<path d="M4520 3153 c0 -12 5 -34 10 -49 6 -15 8 -30 4 -33 -10 -10 -44 40
-44 65 0 29 -5 29 -55 1 -53 -29 -84 -92 -92 -186 l-6 -71 242 0 241 0 0 43
c0 50 -24 139 -47 174 -9 13 -33 33 -54 43 l-38 20 1 -33 c0 -33 -32 -161 -44
-172 -3 -4 -6 25 -5 65 2 62 4 70 20 66 21 -5 21 1 1 49 l-16 38 -19 -29 c-10
-16 -19 -39 -19 -51 0 -13 -4 -23 -10 -23 -5 0 -10 9 -10 20 0 11 -13 34 -30
52 -27 30 -29 31 -30 11z m250 -163 c0 -5 -18 -10 -39 -10 -22 0 -43 5 -46 10
-4 6 12 10 39 10 25 0 46 -4 46 -10z"/>
<path d="M90 3116 c0 -9 7 -16 16 -16 17 0 14 22 -4 28 -7 2 -12 -3 -12 -12z"/>
<path d="M4854 3109 c-7 -12 15 -31 28 -23 4 3 8 12 8 20 0 17 -26 19 -36 3z"/>
<path d="M4246 3061 c-17 -19 -17 -20 2 -30 28 -15 52 13 30 35 -13 13 -16 12
-32 -5z"/>
<path d="M75 3050 c-3 -6 1 -13 10 -16 19 -8 30 0 20 15 -8 14 -22 14 -30 1z"/>
<path d="M4877 3043 c-12 -11 -8 -23 8 -23 8 0 15 7 15 15 0 16 -12 20 -23 8z"/>
<path d="M65 2991 c-8 -15 3 -31 21 -31 9 0 14 7 12 17 -4 20 -24 28 -33 14z"/>
<path d="M4884 2969 c-3 -6 -1 -16 5 -22 9 -9 14 -8 21 3 9 15 4 30 -10 30 -5
0 -12 -5 -16 -11z"/>
<path d="M291 2930 c-147 -53 -247 -173 -272 -329 -25 -156 62 -341 192 -407
59 -29 150 -54 201 -54 37 0 38 1 38 35 0 35 0 35 -45 35 -107 0 -230 82 -282
188 -24 49 -28 69 -28 142 0 97 26 166 85 234 35 39 122 88 178 101 27 5 32
11 32 35 0 25 4 29 33 33 20 2 11 4 -23 5 -32 1 -77 -7 -109 -18z"/>
<path d="M50 2905 c0 -8 9 -15 20 -15 11 0 20 7 20 15 0 8 -9 15 -20 15 -11 0
-20 -7 -20 -15z"/>
<path d="M4103 2895 c0 -8 4 -15 9 -15 5 0 6 -5 2 -12 -4 -7 -3 -8 4 -4 9 5 9
13 2 27 -13 23 -17 24 -17 4z"/>
<path d="M4892 2888 c5 -15 28 -18 29 -3 0 6 -7 12 -17 13 -10 3 -15 -1 -12
-10z"/>
<path d="M47 2844 c-9 -10 2 -24 19 -24 8 0 14 7 14 15 0 15 -21 21 -33 9z"/>
<path d="M4906 2833 c-11 -11 -6 -23 9 -23 8 0 15 4 15 9 0 13 -16 22 -24 14z"/>
<path d="M4327 2824 c-4 -4 -7 -16 -7 -26 0 -13 7 -18 26 -18 21 0 25 4 22 22
-3 23 -27 35 -41 22z"/>
<path d="M390 2805 c0 -9 -12 -20 -27 -26 -22 -8 -30 -7 -38 5 -10 13 -15 13
-43 -4 -17 -11 -45 -38 -62 -61 -27 -38 -28 -43 -14 -54 23 -16 3 -55 -25 -48
-25 6 -36 -39 -26 -113 6 -50 8 -54 30 -48 18 4 25 1 30 -16 4 -11 2 -27 -4
-34 -9 -11 -5 -21 15 -45 15 -18 33 -30 40 -27 8 3 11 0 8 -8 -3 -7 6 -17 20
-24 19 -8 25 -8 30 3 7 19 66 0 66 -21 0 -10 12 -14 39 -14 30 0 38 4 37 16
-2 23 53 42 65 23 6 -11 14 -9 36 8 15 12 27 26 25 33 -1 6 2 9 7 6 11 -7 61
50 61 69 0 8 -7 18 -16 23 -11 6 -14 16 -9 31 5 16 12 20 30 15 20 -5 23 -2
26 33 2 21 3 51 1 66 -3 25 -7 28 -27 23 -18 -5 -24 -1 -29 17 -4 14 0 26 11
34 14 11 13 16 -11 47 -39 52 -93 91 -109 78 -16 -14 -67 -3 -67 14 0 9 -12
14 -35 14 -25 0 -35 -4 -35 -15z m200 -62 c0 -6 -84 -126 -107 -152 -12 -15
-20 -18 -30 -9 -10 8 -5 20 25 57 21 25 48 63 61 83 14 24 27 35 37 31 7 -3
14 -7 14 -10z m-251 -105 c56 -38 74 -58 53 -58 -4 0 -29 14 -55 30 -64 40
-70 38 -13 -5 40 -31 58 -55 41 -55 -8 0 -125 81 -125 87 0 11 22 43 30 43 5
0 36 -19 69 -42z m107 -83 c7 -18 -12 -45 -32 -45 -15 0 -28 35 -19 50 9 15
45 12 51 -5z m-72 -100 c-15 -20 -29 -33 -31 -31 -7 7 36 66 48 66 6 0 -2 -16
-17 -35z"/>
<path d="M4754 2814 c-18 -7 -4 -44 16 -44 22 0 35 31 18 42 -14 8 -17 9 -34
2z"/>
<path d="M4460 2796 c0 -20 -39 -46 -67 -46 -26 0 -39 -18 -24 -33 6 -6 11
-26 11 -45 0 -18 5 -42 10 -53 9 -15 7 -23 -6 -36 -15 -16 -15 -18 2 -30 23
-17 33 -16 40 2 8 19 44 19 72 -1 19 -13 22 -13 22 0 0 8 11 28 25 44 14 17
25 38 25 49 0 10 5 24 12 31 8 8 9 18 0 36 -9 19 -8 27 4 37 13 11 13 14 1 27
-12 11 -18 11 -34 1 -25 -15 -73 -4 -73 16 0 8 -4 15 -10 15 -5 0 -10 -6 -10
-14z m60 -86 c24 -24 26 -57 3 -82 -21 -24 -58 -23 -83 2 -27 27 -25 55 6 79
33 26 49 26 74 1z"/>
<path d="M4907 2763 c-13 -12 -7 -23 13 -23 11 0 20 7 20 15 0 15 -21 21 -33
8z"/>
<path d="M4665 2733 c-37 -18 -90 -120 -73 -140 7 -9 7 -18 -2 -29 -11 -13
-10 -19 8 -36 21 -21 22 -21 42 -3 13 12 38 19 69 21 42 2 50 -1 61 -21 l13
-24 33 26 34 25 -38 72 c-31 58 -45 73 -72 82 -19 6 -36 18 -39 26 -5 14 -10
14 -36 1z m102 -69 c26 -41 -10 -83 -60 -70 -22 5 -27 12 -27 39 0 18 5 38 12
45 20 20 56 14 75 -14z"/>
<path d="M4910 2685 c0 -8 7 -15 15 -15 8 0 15 7 15 15 0 8 -7 15 -15 15 -8 0
-15 -7 -15 -15z"/>
<path d="M936 2644 c-8 -61 -7 -254 2 -276 4 -9 7 59 7 153 1 93 0 169 -1 169
-1 0 -4 -21 -8 -46z"/>
<path d="M4039 2513 c2 -101 7 -156 11 -138 10 40 11 135 4 228 -12 132 -19
84 -15 -90z"/>
<path d="M4917 2624 c-13 -13 -7 -24 14 -24 11 0 19 5 17 12 -5 14 -22 21 -31
12z"/>
<path d="M3927 2583 l52 -4 4 -77 3 -77 2 83 2 82 -57 -2 -58 -2 52 -3z"/>
<path d="M4913 2538 c2 -7 10 -13 17 -13 7 0 15 6 18 13 2 7 -5 12 -18 12 -13
0 -20 -5 -17 -12z"/>
<path d="M1000 2524 c0 -8 5 -12 10 -9 6 3 10 10 10 16 0 5 -4 9 -10 9 -5 0
-10 -7 -10 -16z"/>
<path d="M1053 2533 c-25 -9 -13 -19 22 -19 19 0 33 1 32 2 -15 11 -45 20 -54
17z"/>
<path d="M3920 2526 c0 -12 -5 -16 -17 -12 -28 9 -44 -6 -28 -27 11 -15 14
-16 25 -2 11 14 14 13 25 -1 11 -16 12 -15 17 3 3 11 -1 28 -8 38 -13 17 -14
18 -14 1z"/>
<path d="M4800 2481 c0 -20 -37 -35 -63 -25 -9 3 -16 -3 -20 -15 -7 -29 3 -61
18 -61 8 0 15 -10 17 -22 4 -31 25 -33 32 -3 5 18 12 25 21 21 10 -3 15 1 15
14 0 10 9 22 20 25 27 8 25 42 -2 66 -29 24 -38 24 -38 0z"/>
<path d="M4914 2479 c-8 -14 11 -33 25 -25 6 4 11 11 11 16 0 13 -29 20 -36 9z"/>
<path d="M4541 2446 c-16 -9 -20 -15 -11 -18 19 -6 3 -28 -21 -28 -15 0 -19
-5 -15 -17 3 -10 -1 -31 -9 -47 -14 -26 -13 -30 8 -55 39 -48 108 -94 120 -82
15 15 42 14 57 -4 18 -22 53 -1 44 27 -5 15 0 26 17 40 22 17 23 19 7 29 -12
7 -18 22 -18 47 0 44 -26 88 -43 74 -16 -13 -53 2 -69 28 -15 23 -33 25 -67 6z
m101 -93 c34 -31 11 -93 -35 -93 -27 0 -57 28 -57 53 0 48 56 73 92 40z"/>
<path d="M4910 2405 c0 -10 7 -15 18 -13 21 4 19 22 -2 26 -10 2 -16 -3 -16
-13z"/>
<path d="M4916 2353 c-12 -12 -6 -33 9 -33 8 0 15 6 15 14 0 17 -14 28 -24 19z"/>
<path d="M30 2285 c0 -8 7 -15 15 -15 8 0 15 7 15 15 0 8 -7 15 -15 15 -8 0
-15 -7 -15 -15z"/>
<path d="M4830 2268 c-13 -18 -67 -79 -119 -136 -132 -143 -297 -272 -461
-361 -41 -22 -68 -41 -61 -41 21 0 185 95 251 144 30 23 78 59 105 80 28 20
103 92 167 159 l117 122 1 -154 c0 -85 2 -152 5 -150 2 3 5 72 5 154 1 115 5
155 17 174 24 38 0 46 -27 9z"/>
<path d="M4910 2146 c0 -51 -3 -108 -6 -125 -5 -24 -3 -31 10 -31 14 0 16 15
16 103 0 56 3 112 6 125 5 16 2 22 -10 22 -14 0 -16 -14 -16 -94z"/>
<path d="M40 2215 c0 -8 7 -15 15 -15 8 0 15 7 15 15 0 8 -7 15 -15 15 -8 0
-15 -7 -15 -15z"/>
<path d="M4480 2207 c0 -8 6 -20 14 -26 10 -9 15 -8 19 4 4 9 -2 19 -13 25
-16 8 -20 8 -20 -3z"/>
<path d="M40 2155 c0 -10 7 -15 18 -13 21 4 19 22 -2 26 -10 2 -16 -3 -16 -13z"/>
<path d="M141 2127 c-26 -26 7 -60 35 -36 19 15 18 22 -5 36 -14 9 -21 9 -30
0z"/>
<path d="M4350 2112 c0 -15 -5 -19 -19 -15 -22 6 -38 -14 -23 -29 13 -13 4
-38 -14 -38 -8 0 -14 -4 -14 -10 0 -5 8 -6 17 -3 13 5 15 2 10 -11 -4 -10 -7
-22 -7 -27 0 -4 -13 -6 -30 -2 -23 4 -30 2 -30 -10 0 -10 -6 -14 -14 -11 -10
4 -13 -5 -13 -35 0 -28 4 -41 13 -41 8 0 14 -3 14 -7 0 -5 4 -14 9 -22 8 -12
12 -12 24 -2 11 8 17 9 22 1 7 -11 58 37 69 65 3 9 14 15 23 14 26 -4 79 51
81 84 1 15 -3 27 -8 27 -6 0 -10 7 -10 15 0 8 5 15 11 15 6 0 9 6 6 13 -2 6
-14 11 -26 9 -17 -3 -21 1 -19 15 2 14 -5 19 -34 21 -32 3 -38 0 -38 -16z m45
-131 c3 -6 -1 -11 -10 -11 -12 0 -15 5 -11 16 4 11 -1 22 -14 31 -25 17 -25
27 -3 49 17 17 18 15 25 -29 3 -25 9 -51 13 -56z m30 68 c8 -23 -7 -45 -24
-35 -6 4 -11 18 -11 32 0 30 26 32 35 3z m-75 -69 c13 -8 13 -10 1 -10 -12 0
-12 -3 -3 -12 7 -7 12 -17 12 -22 0 -12 -39 34 -40 47 0 10 12 9 30 -3z m100
0 c0 -5 -9 -10 -21 -10 -11 0 -17 5 -14 10 3 6 13 10 21 10 8 0 14 -4 14 -10z
m-141 -47 c11 -21 -3 -53 -24 -53 -8 0 -19 9 -25 21 -21 37 28 69 49 32z"/>
<path d="M50 2085 c0 -8 7 -15 15 -15 8 0 15 7 15 15 0 8 -7 15 -15 15 -8 0
-15 -7 -15 -15z"/>
<path d="M4737 2084 c-24 -13 -27 -20 -23 -52 3 -20 5 -121 5 -224 1 -104 5
-188 9 -188 5 0 16 6 25 13 14 10 17 43 20 240 2 125 1 227 -2 227 -3 -1 -18
-8 -34 -16z"/>
<path d="M268 2073 c-10 -2 -18 -13 -18 -23 0 -11 -17 -33 -38 -50 -33 -26
-38 -35 -34 -61 3 -21 -1 -34 -14 -44 -18 -13 -18 -14 3 -37 31 -33 41 -97 18
-114 -15 -11 -16 -16 -5 -29 7 -8 18 -14 24 -13 6 1 23 -6 38 -16 21 -14 26
-24 22 -41 -4 -17 0 -26 15 -34 14 -8 22 -8 26 -1 8 13 127 2 137 -13 8 -13
93 70 102 100 4 11 13 24 21 27 18 6 20 43 4 48 -9 3 -9 10 0 27 13 23 6 81
-9 81 -12 0 -19 63 -8 77 13 16 1 33 -23 33 -10 0 -19 4 -19 10 0 5 -11 12
-24 16 -25 6 -40 29 -31 44 7 12 -13 23 -26 15 -18 -12 -129 -16 -129 -5 0 10
-3 11 -32 3z m146 -64 c-2 -3 7 -16 21 -29 13 -12 29 -35 35 -51 7 -16 19 -29
26 -29 16 0 44 -61 44 -96 0 -12 -5 -35 -12 -51 -6 -15 -10 -34 -9 -42 1 -7
-2 -10 -9 -6 -6 4 -20 -1 -30 -10 -32 -29 -94 -37 -140 -19 -42 17 -80 56 -80
82 0 11 3 12 15 2 8 -6 19 -9 25 -5 7 4 2 14 -14 26 -34 27 -59 94 -51 141 4
21 11 41 16 44 6 3 5 12 -3 22 -11 15 -11 15 2 5 13 -10 22 -8 45 7 21 14 44
19 76 18 26 -2 45 -6 43 -9z m94 -75 c-4 -3 -12 5 -18 18 -12 22 -12 22 6 6
10 -10 15 -20 12 -24z m-291 -26 c-3 -7 -5 -2 -5 12 0 14 2 19 5 13 2 -7 2
-19 0 -25z m13 -84 c0 -8 -4 -14 -10 -14 -5 0 -10 9 -10 21 0 11 5 17 10 14 6
-3 10 -13 10 -21z m117 -170 c-3 -3 -12 -4 -19 -1 -8 3 -5 6 6 6 11 1 17 -2
13 -5z"/>
<path d="M340 1955 c0 -8 6 -15 14 -15 8 0 16 7 20 15 4 10 -1 15 -14 15 -11
0 -20 -7 -20 -15z"/>
<path d="M390 1950 c0 -5 7 -10 16 -10 8 0 12 5 9 10 -3 6 -10 10 -16 10 -5 0
-9 -4 -9 -10z"/>
<path d="M290 1920 c0 -13 5 -20 13 -17 6 2 12 10 12 17 0 7 -6 15 -12 18 -8
2 -13 -5 -13 -18z"/>
<path d="M420 1896 c0 -9 7 -16 16 -16 9 0 14 5 12 12 -6 18 -28 21 -28 4z"/>
<path d="M350 1886 c0 -8 4 -17 8 -20 13 -8 35 11 28 23 -10 16 -36 14 -36 -3z"/>
<path d="M290 1852 c0 -5 7 -16 16 -23 14 -12 16 -11 13 5 -4 20 -29 35 -29
18z"/>
<path d="M402 1838 c6 -18 28 -21 28 -4 0 9 -7 16 -16 16 -9 0 -14 -5 -12 -12z"/>
<path d="M476 1824 c-7 -18 0 -34 15 -34 12 0 12 37 0 44 -5 3 -12 -1 -15 -10z"/>
<path d="M350 1805 c0 -8 9 -15 20 -15 11 0 20 7 20 15 0 8 -9 15 -20 15 -11
0 -20 -7 -20 -15z"/>
<path d="M432 1748 c7 -13 14 -25 15 -27 1 -1 6 0 12 3 13 9 -8 46 -26 46 -11
0 -11 -4 -1 -22z"/>
<path d="M340 1735 c0 -8 2 -15 4 -15 2 0 11 -3 20 -6 12 -4 16 0 16 15 0 14
-6 21 -20 21 -11 0 -20 -7 -20 -15z"/>
<path d="M61 2026 c-12 -14 -5 -26 16 -26 15 0 18 26 4 34 -5 3 -14 0 -20 -8z"/>
<path d="M4633 1978 c-23 -11 -23 -14 -23 -203 l0 -192 24 4 c18 4 25 13 29
41 9 57 9 362 0 361 -5 0 -18 -5 -30 -11z"/>
<path d="M70 1955 c0 -8 7 -15 15 -15 8 0 15 7 15 15 0 8 -7 15 -15 15 -8 0
-15 -7 -15 -15z"/>
<path d="M4882 1938 c6 -18 28 -21 28 -4 0 9 -7 16 -16 16 -9 0 -14 -5 -12
-12z"/>
<path d="M4833 1885 c0 -22 2 -30 4 -17 2 12 2 30 0 40 -3 9 -5 -1 -4 -23z"/>
<path d="M77 1895 c-8 -18 11 -31 25 -17 11 11 3 32 -12 32 -4 0 -10 -7 -13
-15z"/>
<path d="M684 1857 c-10 -28 -20 -55 -22 -59 -2 -4 3 -8 12 -8 12 0 16 -11 16
-45 0 -33 4 -45 15 -45 11 0 15 12 15 45 0 38 3 45 20 45 l20 0 -20 40 c-11
21 -20 46 -20 54 0 35 -18 21 -36 -27z"/>
<path d="M4513 1878 c-22 -11 -23 -16 -23 -148 l0 -138 30 -4 30 -5 0 154 c0
84 -3 153 -7 152 -5 0 -18 -5 -30 -11z"/>
<path d="M4877 1883 c-12 -11 -8 -23 8 -23 8 0 15 7 15 15 0 16 -12 20 -23 8z"/>
<path d="M90 1825 c0 -8 7 -15 15 -15 8 0 15 7 15 15 0 8 -7 15 -15 15 -8 0
-15 -7 -15 -15z"/>
<path d="M1071 1832 c-3 -45 151 -305 215 -362 l28 -25 -22 30 c-12 17 -43 57
-68 90 -26 33 -71 110 -100 170 -29 61 -53 104 -53 97z"/>
<path d="M3880 1783 c-33 -75 -111 -194 -173 -266 -27 -32 -47 -60 -44 -63 6
-6 90 92 135 158 28 41 101 174 115 211 3 9 3 17 -1 17 -4 0 -18 -26 -32 -57z"/>
<path d="M4865 1820 c-7 -12 2 -30 16 -30 12 0 12 27 0 35 -5 3 -12 1 -16 -5z"/>
<path d="M1206 1811 c-3 -5 4 -27 17 -49 22 -39 23 -40 50 -26 34 18 35 27 1
14 -14 -6 -27 -10 -28 -10 -9 0 -27 60 -21 69 3 6 2 11 -4 11 -5 0 -12 -4 -15
-9z"/>
<path d="M3757 1803 c10 -3 9 -12 -3 -35 -8 -16 -21 -27 -27 -25 -42 17 -48
16 -18 -2 18 -12 34 -21 36 -19 8 10 35 69 35 78 0 5 -8 10 -17 9 -11 0 -13
-3 -6 -6z"/>
<path d="M4402 1794 c-19 -13 -22 -24 -22 -84 0 -60 3 -71 22 -84 12 -9 26
-16 30 -16 5 0 8 45 8 100 0 55 -3 100 -8 100 -4 0 -18 -7 -30 -16z"/>
<path d="M106 1773 c-11 -11 -6 -23 9 -23 8 0 15 4 15 9 0 13 -16 22 -24 14z"/>
<path d="M4845 1760 c-7 -12 2 -30 16 -30 12 0 12 27 0 35 -5 3 -12 1 -16 -5z"/>
<path d="M4296 1734 c-29 -16 -26 -27 12 -39 19 -6 22 -3 22 24 0 17 -1 31 -2
31 -2 -1 -16 -8 -32 -16z"/>
<path d="M121 1710 c-16 -9 -6 -30 15 -30 15 0 20 25 6 34 -4 2 -14 1 -21 -4z"/>
<path d="M4823 1688 c2 -7 10 -13 17 -13 7 0 15 6 18 13 2 7 -5 12 -18 12 -13
0 -20 -5 -17 -12z"/>
<path d="M1280 1680 c0 -9 13 -31 30 -50 16 -19 29 -41 30 -47 0 -7 5 -13 10
-13 15 0 12 9 -11 41 l-21 29 24 20 23 20 -28 -12 c-24 -10 -29 -9 -42 8 -11
15 -14 16 -15 4z"/>
<path d="M3692 1669 c-13 -20 -14 -20 -40 -4 l-27 17 22 -23 22 -23 -20 -33
c-11 -18 -19 -33 -16 -33 8 0 81 110 76 115 -3 2 -10 -5 -17 -16z"/>
<path d="M137 1644 c-13 -13 -7 -24 14 -24 11 0 19 5 17 12 -5 14 -22 21 -31
12z"/>
<path d="M4807 1634 c-9 -10 2 -24 19 -24 8 0 14 7 14 15 0 15 -21 21 -33 9z"/>
<path d="M4170 1611 c0 -26 -31 -36 -47 -16 -16 23 -56 11 -48 -14 8 -25 -23
-51 -35 -30 -8 12 -12 12 -26 -2 -13 -14 -14 -20 -3 -37 16 -26 -2 -52 -31
-45 -11 3 -20 1 -20 -5 0 -6 -3 -17 -6 -25 -3 -9 3 -16 15 -20 28 -7 29 -53 2
-60 -25 -6 -17 -47 9 -47 21 0 34 -29 24 -54 -8 -22 14 -48 36 -41 20 6 45
-19 35 -35 -3 -5 -15 -10 -26 -10 -10 0 -19 -4 -19 -10 0 -5 -13 -10 -29 -10
-22 0 -30 6 -35 25 -8 32 -56 37 -56 5 0 -27 -45 -38 -68 -17 -22 20 -52 5
-45 -22 6 -23 -45 -62 -73 -55 -12 3 -24 -3 -32 -17 -11 -18 -11 -24 2 -38 15
-16 15 -22 2 -53 -9 -20 -24 -38 -36 -41 -27 -7 -27 -45 1 -55 30 -12 53 -81
34 -102 -19 -22 3 -49 35 -44 36 6 74 -29 66 -60 -5 -19 -1 -25 16 -30 14 -3
26 0 31 9 12 23 58 19 64 -5 3 -11 9 -20 13 -20 5 0 15 -3 23 -6 11 -4 16 2
19 18 4 28 48 37 67 14 19 -23 50 -4 44 27 -6 30 28 58 59 49 31 -8 53 25 33
48 -13 14 -13 21 2 58 12 33 21 42 40 42 18 0 23 5 23 25 0 20 -5 25 -24 25
-19 0 -26 8 -38 44 -13 39 -13 47 0 59 21 22 -2 61 -31 53 -25 -6 -67 28 -67
55 0 13 6 16 21 12 14 -4 25 0 30 10 11 19 49 11 49 -12 0 -10 9 -17 25 -17
18 -1 25 3 25 16 0 23 37 33 49 13 13 -25 49 -8 44 21 -5 27 22 43 42 26 20
-16 47 26 33 50 -15 24 -3 50 22 50 27 0 38 29 17 45 -22 16 -23 65 -1 65 11
0 14 5 10 16 -3 9 -6 20 -6 25 0 5 -12 9 -26 9 -24 0 -26 2 -20 34 8 39 -14
67 -38 47 -16 -13 -31 1 -38 34 -4 24 -38 34 -38 11 0 -9 -4 -16 -9 -16 -23 0
-41 14 -41 31 0 14 -7 19 -25 19 -18 0 -25 -5 -25 -19z m77 -76 c21 -9 46 -23
56 -33 74 -67 63 -200 -22 -258 -42 -28 -115 -33 -161 -9 -119 62 -110 256 15
300 52 18 68 18 112 0z m-317 -464 c0 -5 -14 -14 -30 -20 -17 -5 -44 -19 -59
-30 -26 -19 -41 -19 -41 0 0 4 19 19 43 33 42 26 87 34 87 17z m94 -17 c25
-17 35 -29 28 -36 -11 -11 -102 37 -102 53 0 17 35 9 74 -17z m-30 -95 c30
-35 30 -35 15 -78 -20 -56 -91 -70 -134 -26 -52 51 -15 135 59 135 26 0 40 -7
60 -31z m-204 -56 c1 -21 7 -49 15 -63 29 -51 5 -58 -25 -7 -24 39 -27 107 -5
107 11 0 15 -11 15 -37z m310 2 c0 -41 -28 -105 -47 -105 -11 0 -11 6 2 30 8
16 16 47 17 70 2 51 28 57 28 5z m-216 -125 c47 -21 60 -40 29 -40 -23 0 -83
36 -83 50 0 13 0 13 54 -10z m151 10 c7 -11 -30 -36 -67 -45 -22 -6 -28 -4
-28 9 0 9 8 16 18 16 10 0 27 7 38 15 23 17 31 18 39 5z"/>
<path d="M4234 1471 c-23 -65 -53 -73 -86 -25 -13 19 -26 34 -30 34 -15 0 -8
-23 17 -52 35 -41 32 -55 -20 -80 -25 -12 -45 -26 -45 -30 0 -12 3 -11 53 17
51 29 61 23 47 -26 -12 -42 -13 -72 -1 -65 5 3 12 26 15 51 4 24 12 47 18 51
5 4 30 -8 54 -25 53 -37 59 -25 8 17 -32 26 -36 35 -32 64 3 18 12 50 21 70 9
20 13 39 8 42 -5 3 -17 -16 -27 -43z m-26 -88 c-4 -22 -22 -20 -26 1 -2 10 3
16 13 16 10 0 15 -7 13 -17z"/>
<path d="M157 1584 c-13 -13 -7 -24 14 -24 11 0 19 5 17 12 -5 14 -22 21 -31
12z"/>
<path d="M4785 1571 c-3 -5 -1 -12 5 -16 12 -7 30 2 30 16 0 12 -27 12 -35 0z"/>
<path d="M175 1520 c-3 -6 1 -13 10 -16 19 -8 30 0 20 15 -8 14 -22 14 -30 1z"/>
<path d="M4763 1508 c2 -7 10 -13 17 -13 7 0 15 6 18 13 2 7 -5 12 -18 12 -13
0 -20 -5 -17 -12z"/>
<path d="M314 1497 c-28 -32 13 -110 43 -85 7 6 13 7 13 2 1 -16 24 31 25 51
3 37 -56 60 -81 32z m55 -21 c15 -18 3 -46 -20 -46 -22 0 -34 22 -25 45 7 19
30 19 45 1z"/>
<path d="M4555 1490 c-4 -13 -15 -20 -31 -20 -28 0 -31 -12 -8 -31 11 -9 14
-22 10 -42 -5 -27 -4 -29 17 -22 29 9 39 9 60 0 14 -6 17 -2 17 26 0 18 7 41
17 51 15 17 15 18 -10 18 -16 0 -32 8 -39 20 -7 11 -16 20 -20 20 -4 0 -10 -9
-13 -20z"/>
<path d="M194 1459 c-8 -14 18 -31 30 -19 9 9 0 30 -14 30 -5 0 -12 -5 -16
-11z"/>
<path d="M4740 1445 c0 -8 7 -15 15 -15 8 0 15 7 15 15 0 8 -7 15 -15 15 -8 0
-15 -7 -15 -15z"/>
<path d="M220 1395 c0 -8 7 -15 15 -15 8 0 15 7 15 15 0 8 -7 15 -15 15 -8 0
-15 -7 -15 -15z"/>
<path d="M4717 1394 c-9 -10 2 -24 19 -24 8 0 14 7 14 15 0 15 -21 21 -33 9z"/>
<path d="M242 1338 c5 -15 28 -18 29 -3 0 6 -7 12 -17 13 -10 3 -15 -1 -12
-10z"/>
<path d="M403 1343 c-18 -6 -16 -30 2 -37 9 -3 18 1 22 10 7 18 -7 33 -24 27z"/>
<path d="M4695 1340 c-7 -12 2 -30 16 -30 12 0 12 27 0 35 -5 3 -12 1 -16 -5z"/>
<path d="M270 1280 c0 -13 5 -20 13 -17 6 2 12 10 12 17 0 7 -6 15 -12 18 -8
2 -13 -5 -13 -18z"/>
<path d="M4675 1280 c-4 -6 -3 -16 3 -22 6 -6 12 -6 17 2 4 6 3 16 -3 22 -6 6
-12 6 -17 -2z"/>
<path d="M4494 1265 c-4 -9 -2 -21 4 -27 15 -15 44 -1 40 19 -4 23 -36 29 -44
8z"/>
<path d="M295 1230 c-8 -13 4 -32 16 -25 12 8 12 35 0 35 -6 0 -13 -4 -16 -10z"/>
<path d="M4645 1220 c-3 -6 1 -13 10 -16 19 -8 30 0 20 15 -8 14 -22 14 -30 1z"/>
<path d="M1977 1182 c-3 -9 -10 -32 -16 -50 -6 -19 -6 -30 0 -27 5 4 9 13 9
21 0 8 5 14 12 14 6 0 8 3 5 6 -3 4 -2 15 3 25 6 10 6 20 1 23 -5 3 -11 -2
-14 -12z"/>
<path d="M3031 1181 c-1 -8 -9 -24 -18 -35 -10 -12 -11 -15 -3 -9 11 11 19 9
39 -10 15 -13 20 -15 12 -4 -12 15 -11 20 5 32 18 14 18 14 -3 15 -12 0 -24 6
-26 13 -4 8 -6 8 -6 -2z"/>
<path d="M320 1166 c0 -9 7 -16 16 -16 17 0 14 22 -4 28 -7 2 -12 -3 -12 -12z"/>
<path d="M1857 1163 c-4 -3 -7 -11 -7 -17 0 -6 5 -5 12 2 6 6 9 14 7 17 -3 3
-9 2 -12 -2z"/>
<path d="M2060 1155 c0 -9 -6 -18 -12 -20 -7 -3 -14 -22 -14 -43 -2 -36 -2
-36 8 -9 10 29 14 30 75 12 10 -4 2 2 -17 12 -26 14 -34 24 -32 41 2 12 1 22
-2 22 -3 0 -6 -7 -6 -15z"/>
<path d="M4425 1151 c-25 -20 -24 -57 1 -76 26 -19 74 -19 74 0 0 8 5 15 10
15 14 0 12 42 -3 60 -16 21 -58 21 -82 1z m66 -17 c9 -11 10 -20 2 -32 -13
-22 -43 -22 -56 -1 -24 38 25 68 54 33z"/>
<path d="M2914 1143 c3 -18 -3 -25 -38 -37 -22 -8 -33 -15 -24 -15 9 -1 28 3
42 9 21 8 27 6 37 -11 20 -38 20 -12 -1 32 -11 24 -19 34 -16 22z"/>
<path d="M4594 1129 c-8 -14 18 -31 30 -19 9 9 0 30 -14 30 -5 0 -12 -5 -16
-11z"/>
<path d="M345 1120 c-9 -15 3 -30 20 -24 7 3 11 12 8 20 -6 16 -19 18 -28 4z"/>
<path d="M1779 1096 c29 -35 375 -146 415 -133 6 2 -34 14 -89 26 -101 24
-174 49 -279 95 -32 14 -53 20 -47 12z"/>
<path d="M3150 1086 c-63 -33 -201 -80 -293 -101 -43 -9 -76 -19 -73 -22 21
-21 426 114 426 142 0 9 -15 4 -60 -19z"/>
<path d="M1230 1081 c0 -27 -55 -34 -72 -9 -17 25 -52 14 -45 -13 7 -26 -48
-66 -68 -49 -20 17 -53 -33 -35 -55 9 -11 8 -19 -4 -37 -9 -12 -16 -32 -16
-45 0 -28 -18 -40 -27 -18 -3 10 0 21 7 25 20 12 4 43 -19 35 -13 -4 -20 0
-24 15 -6 22 -36 27 -56 8 -11 -10 -14 -10 -18 0 -3 6 -16 12 -29 12 -18 0
-24 -5 -24 -21 0 -18 -4 -20 -25 -15 -26 7 -29 2 -25 -42 1 -12 -6 -25 -14
-28 -23 -9 -20 -41 5 -54 16 -9 18 -14 8 -26 -16 -19 5 -44 31 -37 14 4 20 0
20 -11 0 -22 27 -31 45 -16 13 11 20 11 39 0 28 -14 46 -7 46 20 0 13 5 18 15
14 8 -4 22 0 31 7 14 12 14 14 -1 25 -9 7 -14 17 -10 23 9 16 25 13 25 -4 0
-9 7 -30 16 -47 13 -25 14 -36 5 -51 -15 -24 4 -51 31 -43 29 7 78 -25 78 -51
0 -16 6 -23 19 -23 11 0 23 5 26 10 11 17 75 12 75 -6 0 -11 8 -14 28 -12 19
2 27 8 26 21 -3 26 43 54 66 39 14 -9 22 -6 44 17 27 29 33 50 16 67 -18 18
12 46 40 39 24 -6 25 -8 24 -95 l-1 -89 38 -27 c21 -14 37 -31 36 -37 -1 -5
13 -19 30 -29 30 -18 34 -18 49 -4 20 20 44 21 44 1 0 -22 31 -31 44 -14 6 8
30 20 53 27 28 8 52 25 69 48 15 19 25 36 23 38 -2 2 -14 9 -26 15 -20 10 -21
14 -10 31 6 11 19 20 28 20 18 0 31 34 24 65 -2 11 -6 32 -10 48 -3 15 -12 27
-21 27 -8 0 -17 8 -21 18 -19 54 -96 94 -139 71 -21 -11 -26 -10 -37 4 -23 31
-112 -10 -143 -66 -8 -13 -18 -16 -42 -11 -25 5 -32 11 -32 31 0 13 7 26 15
29 24 9 19 54 -5 54 -24 0 -43 39 -28 57 15 18 2 43 -22 43 -13 0 -20 7 -20
19 0 22 -27 36 -44 22 -17 -13 -56 6 -56 28 0 17 -18 31 -41 31 -5 0 -9 -8 -9
-19z m73 -111 c53 -34 78 -81 80 -150 1 -56 -22 -101 -70 -137 -31 -24 -46
-28 -99 -28 -61 0 -64 1 -109 45 -56 55 -73 105 -55 165 17 57 44 90 92 114
60 29 105 27 161 -9z m-393 -102 c35 -37 25 -90 -21 -114 -26 -13 -32 -13 -58
0 -31 16 -41 34 -41 72 0 57 79 85 120 42z m794 -50 c20 -9 23 -14 15 -25 -14
-16 -65 -17 -75 -1 -4 6 1 17 11 25 23 16 18 16 49 1z m71 -67 c-3 -11 -26
-33 -51 -47 l-45 -26 -61 37 c-57 36 -62 37 -74 20 -11 -14 -16 -15 -28 -6 -8
6 -12 21 -9 32 5 16 11 19 33 14 18 -4 31 -1 40 10 18 22 40 19 40 -6 0 -15 4
-19 16 -15 9 3 33 6 54 6 31 0 40 4 45 21 l7 21 20 -20 c14 -13 18 -26 13 -41z
m65 4 c0 -12 -21 -25 -41 -25 -13 0 -11 34 3 48 13 13 38 -2 38 -23z m-220
-57 c22 -13 40 -26 40 -30 0 -10 -72 -58 -87 -58 -15 0 -27 61 -18 89 8 27 17
26 65 -1z m188 -36 c2 -42 0 -52 -13 -52 -14 0 -95 48 -95 56 0 2 17 15 38 29
53 36 66 30 70 -33z m-78 -37 c22 -14 40 -29 40 -34 0 -32 -136 -39 -167 -9
-12 13 -9 18 24 41 48 32 54 33 103 2z m-190 -10 c13 -16 6 -35 -15 -35 -18 0
-28 17 -21 35 7 19 20 19 36 0z m51 -35 c27 -15 25 -42 -3 -38 -15 2 -24 11
-26 26 -4 25 1 27 29 12z m219 -4 c0 -20 -27 -39 -46 -32 -15 6 -15 8 1 26 21
23 45 26 45 6z m-83 -42 c6 -17 -48 -33 -75 -23 -22 8 -28 20 -15 33 11 11 86
2 90 -10z"/>
<path d="M1128 940 l-33 -30 24 -19 c24 -19 25 -19 53 2 19 14 28 30 28 49 0
38 -30 37 -72 -2z"/>
<path d="M1230 941 c0 -52 67 -76 100 -36 9 11 3 19 -27 39 -51 35 -73 34 -73
-3z"/>
<path d="M1076 872 c-10 -9 -6 -102 4 -102 5 0 20 5 34 11 18 9 24 19 23 44
-1 25 -7 34 -28 42 -15 6 -30 8 -33 5z"/>
<path d="M1323 867 c-34 -15 -32 -70 2 -85 36 -17 35 -18 35 37 0 56 -5 63
-37 48z"/>
<path d="M1257 756 c-19 -16 -27 -31 -27 -54 l0 -32 38 15 c20 9 45 24 55 33
17 17 16 19 -11 39 l-28 20 -27 -21z"/>
<path d="M1123 758 c-13 -6 -23 -14 -23 -18 0 -12 45 -49 73 -59 26 -10 27 -9
27 20 0 20 -8 38 -22 50 -26 21 -26 21 -55 7z"/>
<path d="M838 859 c-29 -16 -23 -67 8 -81 23 -11 29 -10 45 11 24 29 24 36 -1
61 -23 23 -28 24 -52 9z"/>
<path d="M4563 1058 c2 -7 10 -13 17 -13 7 0 15 6 18 13 2 7 -5 12 -18 12 -13
0 -20 -5 -17 -12z"/>
<path d="M2815 1050 c-3 -5 -1 -10 4 -10 6 0 11 5 11 10 0 6 -2 10 -4 10 -3 0
-8 -4 -11 -10z"/>
<path d="M4222 1047 c-9 -10 -8 -18 2 -32 18 -25 48 -13 44 17 -4 27 -30 35
-46 15z"/>
<path d="M2150 1040 c0 -5 5 -10 10 -10 6 0 10 5 10 10 0 6 -4 10 -10 10 -5 0
-10 -4 -10 -10z"/>
<path d="M394 1016 c-4 -9 -4 -20 0 -23 3 -4 12 -1 18 5 9 9 9 15 0 24 -9 9
-13 7 -18 -6z"/>
<path d="M4387 1016 c-20 -16 -12 -51 13 -53 22 -2 34 35 16 52 -9 10 -16 10
-29 1z"/>
<path d="M4535 1010 c-3 -6 1 -13 10 -16 19 -8 30 0 20 15 -8 14 -22 14 -30 1z"/>
<path d="M3232 1001 c-10 -6 -8 -10 9 -14 26 -7 34 -3 24 12 -7 13 -15 14 -33
2z"/>
<path d="M424 969 c-3 -6 -1 -16 5 -22 9 -9 14 -8 21 3 9 15 4 30 -10 30 -5 0
-12 -5 -16 -11z"/>
<path d="M1789 979 c0 -2 -2 -12 -4 -21 -2 -10 3 -18 10 -18 7 0 12 7 11 15
-2 14 -15 33 -17 24z"/>
<path d="M4519 953 c-8 -2 -23 -17 -32 -33 -10 -16 -52 -66 -94 -112 -42 -46
-87 -100 -101 -121 -29 -44 -118 -110 -209 -156 -35 -17 -63 -38 -63 -46 0
-21 3 -20 73 23 130 79 185 123 295 236 l112 117 0 -55 c0 -31 5 -56 10 -56 6
0 10 33 10 78 0 53 5 84 15 98 24 31 21 37 -16 27z"/>
<path d="M3096 942 c-2 -4 -1 -14 5 -22 6 -10 9 -11 9 -2 0 6 7 12 16 12 8 0
12 5 9 10 -7 12 -32 13 -39 2z"/>
<path d="M455 920 c-18 -29 240 -290 363 -367 37 -23 82 -51 100 -62 39 -25
52 -26 52 -7 0 7 -25 26 -56 40 -126 60 -218 145 -382 351 -42 53 -64 66 -77
45z"/>
<path d="M1850 920 c20 -13 33 -13 25 0 -3 6 -14 10 -23 10 -15 0 -15 -2 -2
-10z"/>
<path d="M1920 922 c0 -4 10 -9 22 -9 18 -2 20 0 8 7 -18 12 -30 13 -30 2z"/>
<path d="M3025 920 c-3 -5 -4 -10 -1 -10 2 0 11 -3 20 -6 11 -4 16 -1 16 10 0
18 -25 22 -35 6z"/>
<path d="M2964 904 c-7 -3 -10 -13 -7 -23 6 -25 43 -16 43 10 0 18 -12 23 -36
13z"/>
<path d="M3420 903 c-36 -15 -43 -35 -26 -75 9 -19 43 -30 52 -17 3 5 9 7 14
4 10 -6 19 41 13 66 -3 10 -9 16 -14 13 -5 -3 -9 0 -9 5 0 12 -7 13 -30 4z
m37 -57 c-9 -22 -47 -21 -47 2 0 10 5 23 12 30 16 16 43 -10 35 -32z"/>
<path d="M642 887 c-11 -14 -2 -41 15 -44 7 -2 17 5 22 15 12 23 -21 49 -37
29z"/>
<path d="M361 826 c-20 -24 -5 -73 24 -78 15 -3 22 -1 18 5 -3 5 0 8 8 5 8 -3
20 1 27 9 11 10 11 18 0 40 -15 32 -58 42 -77 19z m57 -29 c4 -20 -25 -34 -40
-19 -15 15 -1 44 19 40 10 -2 19 -11 21 -21z"/>
<path d="M2020 830 c8 -5 26 -10 39 -10 32 0 24 6 -19 14 -25 4 -31 3 -20 -4z"/>
<path d="M3133 805 c-31 -31 -35 -40 -30 -72 4 -19 8 -38 11 -41 11 -10 34 19
29 38 -7 25 39 70 71 70 14 0 33 -10 44 -25 22 -28 62 -34 62 -9 0 8 -13 29
-29 45 -24 24 -38 29 -76 29 -40 0 -52 -5 -82 -35z"/>
<path d="M2440 811 c0 -6 -9 -11 -20 -11 -27 0 -54 -46 -53 -90 1 -20 13 -61
26 -91 65 -148 189 -101 213 80 6 44 3 51 -23 81 -25 28 -38 34 -86 38 -38 3
-57 1 -57 -7z m74 -81 c39 -8 66 -31 66 -57 0 -33 -35 -95 -61 -109 -26 -13
-32 -13 -58 0 -28 15 -61 69 -61 99 0 28 44 87 60 80 8 -3 33 -9 54 -13z"/>
<path d="M2060 719 c-47 -74 -99 -169 -100 -181 0 -5 16 -8 35 -8 l35 0 0 -87
c1 -208 8 -267 31 -285 30 -25 66 -22 94 7 25 24 25 27 25 195 l0 170 40 0
c22 0 40 3 40 7 0 6 -61 115 -90 163 -6 8 -20 32 -32 52 -13 21 -25 38 -28 38
-3 -1 -25 -32 -50 -71z"/>
<path d="M2824 754 c-53 -26 -76 -58 -82 -112 -11 -117 98 -193 203 -142 59
29 77 56 77 123 1 66 -19 99 -76 127 -50 24 -80 25 -122 4z m94 -35 c65 -23
83 -105 35 -159 -42 -47 -115 -43 -148 7 -34 51 -14 132 38 153 30 12 39 12
75 -1z"/>
<path d="M3277 733 c-19 -19 -3 -31 46 -35 67 -5 105 -32 136 -93 58 -117 -28
-255 -160 -255 -31 0 -40 -3 -36 -14 8 -21 -19 -39 -45 -32 -13 3 -31 18 -42
32 -18 26 -18 26 2 15 36 -19 35 -12 -1 28 -84 93 -95 184 -32 259 14 17 21
33 16 41 -24 39 -91 -62 -91 -137 0 -23 -4 -42 -10 -42 -5 0 -10 -11 -10 -25
0 -14 6 -25 13 -25 20 0 67 -67 67 -97 1 -81 109 -122 168 -64 33 33 72 42 95
22 23 -18 47 -7 40 18 -3 11 2 30 11 43 9 12 16 30 16 40 0 10 14 27 30 40 27
19 30 28 30 72 -1 93 -54 171 -139 201 -46 16 -93 20 -104 8z"/>
<path d="M4444 726 c-35 -15 -44 -33 -44 -79 1 -36 15 -58 47 -75 35 -19 63
-14 94 17 36 36 38 79 7 115 -29 32 -64 39 -104 22z m48 -110 c-3 -5 0 -6 6
-2 7 4 12 28 12 53 0 39 2 44 15 33 18 -15 20 -70 3 -92 -24 -30 -56 -31 -83
-4 -30 30 -32 56 -5 87 l19 24 2 -50 c2 -47 3 -47 6 -10 6 65 16 74 23 20 4
-27 5 -54 2 -59z"/>
<path d="M432 715 c-20 -8 -45 -12 -64 -8 -29 6 -30 5 -19 -16 7 -12 9 -26 6
-31 -9 -14 4 -32 58 -79 60 -51 96 -54 138 -12 34 35 39 92 11 129 -23 30 -85
38 -130 17z m112 -27 c35 -49 3 -128 -51 -128 -33 0 -73 43 -73 78 0 64 89
100 124 50z"/>
<path d="M461 652 c-14 -26 5 -52 37 -51 l27 1 -25 7 c-19 5 -25 14 -25 34 1
32 -1 33 -14 9z"/>
<path d="M3280 641 c0 -12 -12 -26 -31 -35 -28 -14 -33 -14 -54 0 -35 23 -39
1 -6 -30 29 -28 29 -28 40 -7 12 22 45 28 56 11 5 -8 11 -8 19 -1 17 14 59
-16 53 -38 -4 -18 17 -44 27 -34 3 4 6 14 6 23 0 9 11 22 25 28 14 6 25 16 25
22 0 6 -8 6 -23 -1 -20 -9 -30 -6 -62 15 -21 14 -42 26 -46 26 -5 0 -9 9 -9
20 0 11 -4 20 -10 20 -5 0 -10 -9 -10 -19z"/>
<path d="M3653 632 c-3 -11 -14 -23 -25 -25 -11 -3 -18 -12 -15 -19 2 -7 -3
-22 -12 -32 -12 -14 -13 -20 -3 -23 6 -3 12 -16 12 -29 0 -15 6 -24 16 -24 9
0 18 -8 21 -18 3 -15 14 -19 49 -19 29 0 44 5 44 13 0 7 10 14 23 16 15 2 22
10 22 24 0 11 6 28 14 37 11 14 11 18 -3 23 -9 3 -16 17 -16 30 0 14 -6 24
-15 24 -8 0 -19 9 -25 20 -8 15 -15 18 -28 11 -10 -6 -23 -6 -35 1 -15 7 -20
5 -24 -10z m73 -40 c6 -4 16 -17 23 -30 25 -48 -38 -98 -84 -68 -29 19 -33 60
-8 88 16 18 49 23 69 10z"/>
<path d="M4396 573 c-11 -11 -6 -23 9 -23 8 0 15 4 15 9 0 13 -16 22 -24 14z"/>
<path d="M3937 564 c-16 -16 -6 -34 19 -34 19 0 25 5 22 17 -3 19 -29 29 -41
17z"/>
<path d="M4346 543 c-11 -11 -6 -23 9 -23 8 0 15 4 15 9 0 13 -16 22 -24 14z"/>
<path d="M3203 533 c-7 -3 -13 -11 -13 -18 0 -8 -9 -19 -20 -25 -29 -16 -25
-32 5 -18 22 10 28 8 46 -10 11 -12 24 -22 30 -22 5 0 14 -12 20 -27 l10 -27
12 24 c12 24 61 44 85 35 16 -6 15 20 -2 34 -10 9 -16 8 -26 -4 -16 -19 -39
-19 -46 0 -6 14 -8 14 -18 -1 -17 -23 -53 -3 -63 35 -5 16 -13 26 -20 24z"/>
<path d="M3270 526 c0 -17 27 -29 35 -16 4 6 3 15 0 20 -9 15 -35 12 -35 -4z"/>
<path d="M648 518 c9 -9 15 -9 24 0 9 9 7 12 -12 12 -19 0 -21 -3 -12 -12z"/>
<path d="M2425 433 c5 -87 5 -88 -11 -53 -9 19 -19 56 -23 82 l-6 46 -61 -28
c-86 -39 -94 -59 -94 -244 l0 -146 35 0 35 0 0 75 0 75 60 0 61 0 -29 43 c-16
23 -39 51 -51 61 -26 24 -26 28 0 45 19 11 21 11 15 -4 -4 -11 10 -38 39 -79
35 -50 55 -67 90 -80 l45 -18 0 -59 0 -59 60 0 60 0 0 70 0 70 -50 0 c-64 0
-64 20 1 99 20 25 25 38 18 47 -15 18 3 24 25 9 18 -13 16 -17 -24 -62 -70
-79 -70 -83 -5 -83 l55 0 0 -75 0 -75 46 0 46 0 -4 148 c-5 178 -14 202 -98
244 -30 15 -57 28 -60 28 -3 0 -6 -17 -6 -37 0 -21 -13 -65 -28 -98 l-27 -60
6 45 c21 166 19 183 -20 140 -16 -17 -17 -34 -13 -132 l5 -113 -18 55 c-9 30
-20 82 -24 115 -7 56 -26 95 -47 95 -5 0 -7 -38 -3 -87z"/>
<path d="M4290 505 c0 -8 7 -15 15 -15 8 0 15 7 15 15 0 8 -7 15 -15 15 -8 0
-15 -7 -15 -15z"/>
<path d="M710 475 c0 -8 5 -15 10 -15 6 0 10 7 10 15 0 8 -4 15 -10 15 -5 0
-10 -7 -10 -15z"/>
<path d="M4247 483 c-12 -11 -8 -23 8 -23 8 0 15 7 15 15 0 16 -12 20 -23 8z"/>
<path d="M1345 472 c-11 -2 -24 -12 -29 -21 -13 -21 -15 -51 -4 -51 4 0 8 -7
8 -16 0 -8 5 -12 10 -9 6 4 17 1 25 -5 11 -9 15 -9 15 -1 0 6 6 11 14 11 17 0
26 21 21 46 -2 11 -4 21 -4 24 -2 12 -37 26 -56 22z m33 -68 c-9 -9 -24 -14
-32 -11 -19 7 -21 38 -4 55 10 10 17 8 32 -8 19 -18 19 -21 4 -36z"/>
<path d="M3940 451 c0 -27 19 -36 37 -18 18 18 9 37 -18 37 -12 0 -19 -7 -19
-19z"/>
<path d="M1002 443 c2 -10 10 -18 18 -18 8 0 16 8 18 18 2 12 -3 17 -18 17
-15 0 -20 -5 -18 -17z"/>
<path d="M2814 325 c0 -77 2 -107 3 -67 2 40 2 103 0 140 -2 37 -3 4 -3 -73z"/>
<path d="M2852 308 l3 -153 26 -3 c35 -4 39 12 39 176 l0 132 -35 0 -36 0 3
-152z"/>
<path d="M4197 453 c-12 -11 -8 -23 8 -23 8 0 15 7 15 15 0 16 -12 20 -23 8z"/>
<path d="M3482 438 c-19 -19 -14 -56 9 -68 16 -9 26 -8 45 5 28 18 31 37 8 59
-18 19 -45 21 -62 4z"/>
<path d="M785 431 c-3 -5 -1 -12 5 -16 12 -7 30 2 30 16 0 12 -27 12 -35 0z"/>
<path d="M1064 419 c-10 -17 13 -36 27 -22 12 12 4 33 -11 33 -5 0 -12 -5 -16
-11z"/>
<path d="M3870 405 c0 -8 9 -15 20 -15 11 0 20 7 20 15 0 8 -9 15 -20 15 -11
0 -20 -7 -20 -15z"/>
<path d="M1125 390 c-7 -12 2 -30 16 -30 12 0 12 27 0 35 -5 3 -12 1 -16 -5z"/>
<path d="M1497 373 c-13 -15 -13 -21 -3 -35 17 -23 43 -23 55 1 8 14 6 22 -8
35 -22 20 -24 20 -44 -1z"/>
<path d="M3805 380 c-8 -14 3 -30 21 -30 8 0 14 9 14 20 0 21 -24 28 -35 10z"/>
<path d="M1865 370 c-11 -4 -29 -10 -40 -14 -26 -9 -47 -53 -36 -75 5 -9 6
-22 4 -29 -3 -8 4 -16 16 -19 12 -3 21 -9 21 -14 0 -16 65 -9 87 10 28 23 37
121 11 121 -6 0 -19 6 -27 13 -10 8 -24 11 -36 7z m37 -33 c9 -8 16 -27 16
-48 0 -30 -5 -37 -31 -49 -23 -10 -32 -10 -35 -2 -2 7 -9 12 -17 12 -7 0 -15
15 -19 32 -5 27 -2 36 16 50 27 21 47 22 70 5z"/>
<path d="M1842 293 c5 -25 48 -26 48 -2 0 14 -7 19 -26 19 -19 0 -25 -4 -22
-17z"/>
<path d="M1182 354 c4 -21 22 -23 26 -1 2 10 -3 17 -13 17 -10 0 -15 -6 -13
-16z"/>
<path d="M1629 331 c-13 -14 -14 -21 -4 -34 13 -18 55 -24 55 -8 0 5 3 16 6
25 4 11 1 16 -10 16 -9 0 -16 5 -16 10 0 15 -13 11 -31 -9z"/>
<path d="M3737 344 c-13 -13 -7 -24 14 -24 11 0 19 5 17 12 -5 14 -22 21 -31
12z"/>
<path d="M1240 324 c0 -17 22 -14 28 4 2 7 -3 12 -12 12 -9 0 -16 -7 -16 -16z"/>
<path d="M3670 305 c0 -8 7 -15 15 -15 8 0 15 7 15 15 0 8 -7 15 -15 15 -8 0
-15 -7 -15 -15z"/>
<path d="M1300 295 c12 -15 30 -12 30 6 0 5 -10 9 -21 9 -18 0 -19 -2 -9 -15z"/>
<path d="M1357 286 c-7 -19 11 -32 24 -19 6 6 5 14 -4 22 -12 9 -16 8 -20 -3z"/>
<path d="M3606 292 c-2 -4 -1 -14 4 -22 7 -11 12 -12 21 -3 6 6 8 16 5 22 -8
13 -23 14 -30 3z"/>
<path d="M3046 271 c-21 -23 -9 -56 19 -56 29 0 38 32 16 54 -19 19 -20 19
-35 2z"/>
<path d="M1410 255 c0 -8 7 -15 15 -15 8 0 15 7 15 15 0 8 -7 15 -15 15 -8 0
-15 -7 -15 -15z"/>
<path d="M3542 254 c4 -21 22 -23 26 -1 2 10 -3 17 -13 17 -10 0 -15 -6 -13
-16z"/>
<path d="M1474 239 c-10 -17 13 -36 27 -22 12 12 4 33 -11 33 -5 0 -12 -5 -16
-11z"/>
<path d="M3470 225 c0 -8 7 -15 15 -15 8 0 15 7 15 15 0 8 -7 15 -15 15 -8 0
-15 -7 -15 -15z"/>
<path d="M1535 220 c-7 -12 2 -30 16 -30 5 0 9 9 9 20 0 21 -15 27 -25 10z"/>
<path d="M2320 160 l0 -70 94 0 c76 0 95 3 100 16 9 23 8 24 -16 34 -16 6 -18
9 -7 9 25 1 33 33 13 48 -20 15 -103 33 -149 33 l-35 0 0 -70z"/>
<path d="M3410 205 c0 -8 7 -15 15 -15 8 0 15 7 15 15 0 8 -7 15 -15 15 -8 0
-15 -7 -15 -15z"/>
<path d="M1594 199 c-8 -14 11 -33 25 -25 6 4 11 11 11 16 0 13 -29 20 -36 9z"/>
<path d="M3340 185 c0 -10 7 -15 18 -13 21 4 19 22 -2 26 -10 2 -16 -3 -16
-13z"/>
<path d="M1660 171 c0 -12 6 -21 16 -21 9 0 14 7 12 17 -5 25 -28 28 -28 4z"/>
<path d="M3280 165 c0 -8 7 -15 15 -15 8 0 15 7 15 15 0 8 -7 15 -15 15 -8 0
-15 -7 -15 -15z"/>
<path d="M1730 150 c0 -13 5 -20 13 -17 16 5 16 29 0 35 -8 2 -13 -5 -13 -18z"/>
<path d="M3220 144 c0 -17 22 -14 28 4 2 7 -3 12 -12 12 -9 0 -16 -7 -16 -16z"/>
<path d="M1792 134 c4 -21 22 -23 26 -1 2 10 -3 17 -13 17 -10 0 -15 -6 -13
-16z"/>
<path d="M3154 139 c-10 -17 13 -36 27 -22 12 12 4 33 -11 33 -5 0 -12 -5 -16
-11z"/>
<path d="M1861 127 c-9 -12 -8 -16 3 -20 19 -7 32 11 19 24 -6 6 -14 5 -22 -4z"/>
<path d="M3085 121 c-3 -5 -1 -12 5 -16 12 -7 30 2 30 16 0 12 -27 12 -35 0z"/>
<path d="M1932 108 c5 -15 28 -18 29 -3 0 6 -7 12 -17 13 -10 3 -15 -1 -12
-10z"/>
<path d="M3020 105 c0 -9 5 -15 11 -13 6 2 11 8 11 13 0 5 -5 11 -11 13 -6 2
-11 -4 -11 -13z"/>
<path d="M2000 95 c0 -10 7 -15 18 -13 21 4 19 22 -2 26 -10 2 -16 -3 -16 -13z"/>
<path d="M2947 104 c-13 -13 -7 -24 14 -24 11 0 19 5 17 12 -5 14 -22 21 -31
12z"/>
<path d="M2080 85 c0 -8 7 -15 15 -15 8 0 15 7 15 15 0 8 -7 15 -15 15 -8 0
-15 -7 -15 -15z"/>
<path d="M2161 86 c-9 -10 -9 -16 -1 -21 17 -10 37 12 24 25 -8 8 -15 6 -23
-4z"/>
<path d="M2870 85 c0 -8 7 -15 15 -15 8 0 15 7 15 15 0 8 -7 15 -15 15 -8 0
-15 -7 -15 -15z"/>
<path d="M2800 75 c0 -8 5 -15 10 -15 6 0 10 7 10 15 0 8 -4 15 -10 15 -5 0
-10 -7 -10 -15z"/>
</g>
</svg>
